<?xml version="1.0" encoding="utf-8" standalone="no"?>
<!DOCTYPE svg PUBLIC "-//W3C//DTD SVG 1.1//EN"
  "http://www.w3.org/Graphics/SVG/1.1/DTD/svg11.dtd">
<svg xmlns:xlink="http://www.w3.org/1999/xlink" width="792.848pt" height="382.85987pt" viewBox="0 0 792.848 382.85987" xmlns="http://www.w3.org/2000/svg" version="1.1">
 <metadata>
  <rdf:RDF xmlns:dc="http://purl.org/dc/elements/1.1/" xmlns:cc="http://creativecommons.org/ns#" xmlns:rdf="http://www.w3.org/1999/02/22-rdf-syntax-ns#">
   <cc:Work>
    <dc:type rdf:resource="http://purl.org/dc/dcmitype/StillImage"/>
    <dc:date>2026-06-04T07:18:35.843908</dc:date>
    <dc:format>image/svg+xml</dc:format>
    <dc:creator>
     <cc:Agent>
      <dc:title>Matplotlib v3.10.0, https://matplotlib.org/</dc:title>
     </cc:Agent>
    </dc:creator>
   </cc:Work>
  </rdf:RDF>
 </metadata>
 <defs>
  <style type="text/css">*{stroke-linejoin: round; stroke-linecap: butt}</style>
 </defs>
 <g id="figure_1">
  <g id="patch_1">
   <path d="M 0 382.85987 
L 792.848 382.85987 
L 792.848 0 
L 0 0 
L 0 382.85987 
z
" style="fill: none"/>
  </g>
  <g id="axes_1">
   <g id="patch_2">
    <path d="M 43.81125 279.317812 
L 629.71125 279.317812 
L 629.71125 29.837812 
L 43.81125 29.837812 
L 43.81125 279.317812 
z
" style="fill: none"/>
   </g>
   <g id="FillBetweenPolyCollection_1">
    <defs>
     <path id="mce16cff880" d="M 104.507022 -121.408194 
L 104.39472 -121.408194 
L 104.291632 -123.266248 
L 104.074213 -125.124303 
L 103.64572 -126.982358 
L 102.887726 -128.840413 
L 101.698274 -130.698468 
L 100.03845 -132.556522 
L 97.952951 -134.414577 
L 95.537416 -136.272632 
L 92.865512 -138.130687 
L 89.932935 -139.988742 
L 86.678346 -141.846796 
L 83.089433 -143.704851 
L 79.335795 -145.562906 
L 75.843966 -147.420961 
L 73.254177 -149.279015 
L 72.24278 -151.13707 
L 73.247746 -152.995125 
L 76.21131 -154.85318 
L 80.509818 -156.711235 
L 85.171964 -158.569289 
L 89.286953 -160.427344 
L 92.348742 -162.285399 
L 94.339045 -164.143454 
L 95.561386 -166.001508 
L 96.392532 -167.859563 
L 97.107437 -169.717618 
L 97.827813 -171.575673 
L 98.557338 -173.433728 
L 99.244302 -175.291782 
L 99.833828 -177.149837 
L 100.297862 -179.007892 
L 100.642173 -180.865947 
L 100.893571 -182.724002 
L 101.079543 -184.582056 
L 101.217943 -186.440111 
L 101.322442 -188.298166 
L 101.410484 -190.156221 
L 101.499261 -192.014275 
L 101.593249 -193.87233 
L 101.678958 -195.730385 
L 101.733831 -197.58844 
L 101.740632 -199.446495 
L 101.695771 -201.304549 
L 101.609088 -203.162604 
L 101.499708 -205.020659 
L 101.391482 -206.878714 
L 101.308179 -208.736769 
L 101.268176 -210.594823 
L 101.279761 -212.452878 
L 101.338814 -214.310933 
L 101.430421 -216.168988 
L 101.534939 -218.027042 
L 101.636511 -219.885097 
L 101.729781 -221.743152 
L 101.820923 -223.601207 
L 101.922767 -225.459262 
L 102.047662 -227.317316 
L 102.202468 -229.175371 
L 102.387384 -231.033426 
L 102.59732 -232.891481 
L 102.823514 -234.749535 
L 103.054224 -236.60759 
L 103.27542 -238.465645 
L 103.473442 -240.3237 
L 103.639973 -242.181755 
L 103.77616 -244.039809 
L 103.891613 -245.897864 
L 103.997712 -247.755919 
L 104.10008 -249.613974 
L 104.196139 -251.472029 
L 104.278772 -253.330083 
L 104.341881 -255.188138 
L 104.383591 -257.046193 
L 104.406472 -258.904248 
L 104.41628 -260.762302 
L 104.420169 -262.620357 
L 104.424521 -264.478412 
L 104.433033 -266.336467 
L 104.446054 -268.194522 
L 104.461468 -270.052576 
L 104.476385 -271.910631 
L 104.488583 -273.768686 
L 104.497149 -275.626741 
L 104.502348 -277.484795 
L 104.505078 -279.34285 
L 104.506315 -281.200905 
L 104.506798 -283.05896 
L 104.506959 -284.917015 
L 104.507 -286.775069 
L 104.506988 -288.633124 
L 104.506903 -290.491179 
L 104.506642 -292.349234 
L 104.505976 -294.207289 
L 104.504554 -296.065343 
L 104.502042 -297.923398 
L 104.498424 -299.781453 
L 104.494321 -301.639508 
L 104.490972 -303.497562 
L 104.489669 -305.355617 
L 104.507022 -305.355617 
L 104.507022 -305.355617 
L 104.507022 -303.497562 
L 104.507022 -301.639508 
L 104.507022 -299.781453 
L 104.507022 -297.923398 
L 104.507022 -296.065343 
L 104.507022 -294.207289 
L 104.507022 -292.349234 
L 104.507022 -290.491179 
L 104.507022 -288.633124 
L 104.507022 -286.775069 
L 104.507022 -284.917015 
L 104.507022 -283.05896 
L 104.507022 -281.200905 
L 104.507022 -279.34285 
L 104.507022 -277.484795 
L 104.507022 -275.626741 
L 104.507022 -273.768686 
L 104.507022 -271.910631 
L 104.507022 -270.052576 
L 104.507022 -268.194522 
L 104.507022 -266.336467 
L 104.507022 -264.478412 
L 104.507022 -262.620357 
L 104.507022 -260.762302 
L 104.507022 -258.904248 
L 104.507022 -257.046193 
L 104.507022 -255.188138 
L 104.507022 -253.330083 
L 104.507022 -251.472029 
L 104.507022 -249.613974 
L 104.507022 -247.755919 
L 104.507022 -245.897864 
L 104.507022 -244.039809 
L 104.507022 -242.181755 
L 104.507022 -240.3237 
L 104.507022 -238.465645 
L 104.507022 -236.60759 
L 104.507022 -234.749535 
L 104.507022 -232.891481 
L 104.507022 -231.033426 
L 104.507022 -229.175371 
L 104.507022 -227.317316 
L 104.507022 -225.459262 
L 104.507022 -223.601207 
L 104.507022 -221.743152 
L 104.507022 -219.885097 
L 104.507022 -218.027042 
L 104.507022 -216.168988 
L 104.507022 -214.310933 
L 104.507022 -212.452878 
L 104.507022 -210.594823 
L 104.507022 -208.736769 
L 104.507022 -206.878714 
L 104.507022 -205.020659 
L 104.507022 -203.162604 
L 104.507022 -201.304549 
L 104.507022 -199.446495 
L 104.507022 -197.58844 
L 104.507022 -195.730385 
L 104.507022 -193.87233 
L 104.507022 -192.014275 
L 104.507022 -190.156221 
L 104.507022 -188.298166 
L 104.507022 -186.440111 
L 104.507022 -184.582056 
L 104.507022 -182.724002 
L 104.507022 -180.865947 
L 104.507022 -179.007892 
L 104.507022 -177.149837 
L 104.507022 -175.291782 
L 104.507022 -173.433728 
L 104.507022 -171.575673 
L 104.507022 -169.717618 
L 104.507022 -167.859563 
L 104.507022 -166.001508 
L 104.507022 -164.143454 
L 104.507022 -162.285399 
L 104.507022 -160.427344 
L 104.507022 -158.569289 
L 104.507022 -156.711235 
L 104.507022 -154.85318 
L 104.507022 -152.995125 
L 104.507022 -151.13707 
L 104.507022 -149.279015 
L 104.507022 -147.420961 
L 104.507022 -145.562906 
L 104.507022 -143.704851 
L 104.507022 -141.846796 
L 104.507022 -139.988742 
L 104.507022 -138.130687 
L 104.507022 -136.272632 
L 104.507022 -134.414577 
L 104.507022 -132.556522 
L 104.507022 -130.698468 
L 104.507022 -128.840413 
L 104.507022 -126.982358 
L 104.507022 -125.124303 
L 104.507022 -123.266248 
L 104.507022 -121.408194 
z
" style="stroke: #3f3f3f"/>
    </defs>
    <g clip-path="url(#p42c666f1f5)">
     <use xlink:href="#mce16cff880" x="0" y="382.85987" style="fill: #3274a1; stroke: #3f3f3f"/>
    </g>
   </g>
   <g id="FillBetweenPolyCollection_2">
    <defs>
     <path id="me8ab071ed5" d="M 104.590127 -133.015217 
L 104.507022 -133.015217 
L 104.507022 -134.568815 
L 104.507022 -136.122413 
L 104.507022 -137.676011 
L 104.507022 -139.229609 
L 104.507022 -140.783207 
L 104.507022 -142.336805 
L 104.507022 -143.890403 
L 104.507022 -145.444001 
L 104.507022 -146.997599 
L 104.507022 -148.551197 
L 104.507022 -150.104795 
L 104.507022 -151.658393 
L 104.507022 -153.211991 
L 104.507022 -154.765589 
L 104.507022 -156.319187 
L 104.507022 -157.872785 
L 104.507022 -159.426383 
L 104.507022 -160.979981 
L 104.507022 -162.533579 
L 104.507022 -164.087177 
L 104.507022 -165.640775 
L 104.507022 -167.194373 
L 104.507022 -168.747971 
L 104.507022 -170.301569 
L 104.507022 -171.855167 
L 104.507022 -173.408765 
L 104.507022 -174.962363 
L 104.507022 -176.515961 
L 104.507022 -178.069559 
L 104.507022 -179.623157 
L 104.507022 -181.176755 
L 104.507022 -182.730353 
L 104.507022 -184.283951 
L 104.507022 -185.837549 
L 104.507022 -187.391147 
L 104.507022 -188.944745 
L 104.507022 -190.498343 
L 104.507022 -192.051941 
L 104.507022 -193.605539 
L 104.507022 -195.159137 
L 104.507022 -196.712735 
L 104.507022 -198.266333 
L 104.507022 -199.819931 
L 104.507022 -201.373529 
L 104.507022 -202.927127 
L 104.507022 -204.480725 
L 104.507022 -206.034323 
L 104.507022 -207.587921 
L 104.507022 -209.141519 
L 104.507022 -210.695117 
L 104.507022 -212.248714 
L 104.507022 -213.802312 
L 104.507022 -215.35591 
L 104.507022 -216.909508 
L 104.507022 -218.463106 
L 104.507022 -220.016704 
L 104.507022 -221.570302 
L 104.507022 -223.1239 
L 104.507022 -224.677498 
L 104.507022 -226.231096 
L 104.507022 -227.784694 
L 104.507022 -229.338292 
L 104.507022 -230.89189 
L 104.507022 -232.445488 
L 104.507022 -233.999086 
L 104.507022 -235.552684 
L 104.507022 -237.106282 
L 104.507022 -238.65988 
L 104.507022 -240.213478 
L 104.507022 -241.767076 
L 104.507022 -243.320674 
L 104.507022 -244.874272 
L 104.507022 -246.42787 
L 104.507022 -247.981468 
L 104.507022 -249.535066 
L 104.507022 -251.088664 
L 104.507022 -252.642262 
L 104.507022 -254.19586 
L 104.507022 -255.749458 
L 104.507022 -257.303056 
L 104.507022 -258.856654 
L 104.507022 -260.410252 
L 104.507022 -261.96385 
L 104.507022 -263.517448 
L 104.507022 -265.071046 
L 104.507022 -266.624644 
L 104.507022 -268.178242 
L 104.507022 -269.73184 
L 104.507022 -271.285438 
L 104.507022 -272.839036 
L 104.507022 -274.392634 
L 104.507022 -275.946232 
L 104.507022 -277.49983 
L 104.507022 -279.053428 
L 104.507022 -280.607026 
L 104.507022 -282.160624 
L 104.507022 -283.714222 
L 104.507022 -285.26782 
L 104.507022 -286.821418 
L 104.541364 -286.821418 
L 104.541364 -286.821418 
L 104.549533 -285.26782 
L 104.552244 -283.714222 
L 104.549966 -282.160624 
L 104.544322 -280.607026 
L 104.53664 -279.053428 
L 104.528623 -277.49983 
L 104.523315 -275.946232 
L 104.522976 -274.392634 
L 104.526161 -272.839036 
L 104.529225 -271.285438 
L 104.530422 -269.73184 
L 104.530013 -268.178242 
L 104.527478 -266.624644 
L 104.522208 -265.071046 
L 104.515927 -263.517448 
L 104.511628 -261.96385 
L 104.511215 -260.410252 
L 104.515316 -258.856654 
L 104.523417 -257.303056 
L 104.533107 -255.749458 
L 104.541046 -254.19586 
L 104.546047 -252.642262 
L 104.549939 -251.088664 
L 104.554356 -249.535066 
L 104.558746 -247.981468 
L 104.563156 -246.42787 
L 104.570035 -244.874272 
L 104.581752 -243.320674 
L 104.599461 -241.767076 
L 104.624873 -240.213478 
L 104.66014 -238.65988 
L 104.703827 -237.106282 
L 104.746899 -235.552684 
L 104.776589 -233.999086 
L 104.788471 -232.445488 
L 104.793 -230.89189 
L 104.804594 -229.338292 
L 104.823408 -227.784694 
L 104.836064 -226.231096 
L 104.838099 -224.677498 
L 104.843858 -223.1239 
L 104.866555 -221.570302 
L 104.89947 -220.016704 
L 104.926388 -218.463106 
L 104.944237 -216.909508 
L 104.965756 -215.35591 
L 104.998291 -213.802312 
L 105.027434 -212.248714 
L 105.032906 -210.695117 
L 105.015091 -209.141519 
L 104.988751 -207.587921 
L 104.961585 -206.034323 
L 104.94048 -204.480725 
L 104.944006 -202.927127 
L 104.985618 -201.373529 
L 105.054055 -199.819931 
L 105.12925 -198.266333 
L 105.209607 -196.712735 
L 105.29844 -195.159137 
L 105.368119 -193.605539 
L 105.377807 -192.051941 
L 105.336731 -190.498343 
L 105.311578 -188.944745 
L 105.358421 -187.391147 
L 105.473633 -185.837549 
L 105.612392 -184.283951 
L 105.732453 -182.730353 
L 105.820747 -181.176755 
L 105.896378 -179.623157 
L 106.000063 -178.069559 
L 106.181328 -176.515961 
L 106.476758 -174.962363 
L 106.869516 -173.408765 
L 107.270099 -171.855167 
L 107.569597 -170.301569 
L 107.725585 -168.747971 
L 107.787951 -167.194373 
L 107.85496 -165.640775 
L 108.072023 -164.087177 
L 108.796404 -162.533579 
L 110.824598 -160.979981 
L 115.237052 -159.426383 
L 122.517871 -157.872785 
L 131.504778 -156.319187 
L 139.464202 -154.765589 
L 143.677788 -153.211991 
L 143.118282 -151.658393 
L 138.68962 -150.104795 
L 132.217236 -148.551197 
L 125.374486 -146.997599 
L 119.215192 -145.444001 
L 114.215487 -143.890403 
L 110.482164 -142.336805 
L 107.917785 -140.783207 
L 106.309631 -139.229609 
L 105.392208 -137.676011 
L 104.915219 -136.122413 
L 104.68923 -134.568815 
L 104.590127 -133.015217 
z
" style="stroke: #3f3f3f"/>
    </defs>
    <g clip-path="url(#p42c666f1f5)">
     <use xlink:href="#me8ab071ed5" x="0" y="382.85987" style="fill: #e1812c; stroke: #3f3f3f"/>
    </g>
   </g>
   <g id="FillBetweenPolyCollection_3">
    <defs>
     <path id="m7cd4dfd1fa" d="M 259.343174 -120.760357 
L 259.31529 -120.760357 
L 259.318488 -122.20853 
L 259.325993 -123.656703 
L 259.333466 -125.104876 
L 259.337559 -126.553049 
L 259.336688 -128.001222 
L 259.329492 -129.449395 
L 259.312393 -130.897568 
L 259.27372 -132.345741 
L 259.179021 -133.793913 
L 258.948213 -135.242086 
L 258.440488 -136.690259 
L 257.475532 -138.138432 
L 255.908484 -139.586605 
L 253.727178 -141.034778 
L 251.08066 -142.482951 
L 248.150981 -143.931124 
L 244.886563 -145.379297 
L 240.765885 -146.82747 
L 234.847467 -148.275643 
L 226.309246 -149.723816 
L 215.428512 -151.171989 
L 204.463086 -152.620162 
L 197.408713 -154.068335 
L 197.970282 -155.516508 
L 206.821836 -156.96468 
L 220.699267 -158.412853 
L 234.537622 -159.861026 
L 244.704772 -161.309199 
L 250.449481 -162.757372 
L 252.997039 -164.205545 
L 253.928327 -165.653718 
L 254.277053 -167.101891 
L 254.465595 -168.550064 
L 254.563096 -169.998237 
L 254.50002 -171.44641 
L 254.180479 -172.894583 
L 253.566092 -174.342756 
L 252.747952 -175.790929 
L 251.937934 -177.239102 
L 251.362503 -178.687274 
L 251.156257 -180.135447 
L 251.337489 -181.58362 
L 251.840542 -183.031793 
L 252.552275 -184.479966 
L 253.348127 -185.928139 
L 254.134785 -187.376312 
L 254.872551 -188.824485 
L 255.550166 -190.272658 
L 256.142693 -191.720831 
L 256.610391 -193.169004 
L 256.937091 -194.617177 
L 257.150208 -196.06535 
L 257.29533 -197.513523 
L 257.403418 -198.961696 
L 257.490336 -200.409869 
L 257.571859 -201.858041 
L 257.659258 -203.306214 
L 257.745766 -204.754387 
L 257.815092 -206.20256 
L 257.863444 -207.650733 
L 257.902515 -209.098906 
L 257.94494 -210.547079 
L 258.000997 -211.995252 
L 258.088617 -213.443425 
L 258.230022 -214.891598 
L 258.428223 -216.339771 
L 258.651121 -217.787944 
L 258.846327 -219.236117 
L 258.974505 -220.68429 
L 259.030875 -222.132463 
L 259.040119 -223.580635 
L 259.03415 -225.028808 
L 259.033156 -226.476981 
L 259.043268 -227.925154 
L 259.064217 -229.373327 
L 259.091656 -230.8215 
L 259.115324 -232.269673 
L 259.125687 -233.717846 
L 259.125694 -235.166019 
L 259.13 -236.614192 
L 259.149469 -238.062365 
L 259.180368 -239.510538 
L 259.210823 -240.958711 
L 259.233631 -242.406884 
L 259.249765 -243.855057 
L 259.262878 -245.30323 
L 259.274778 -246.751402 
L 259.285692 -248.199575 
L 259.295454 -249.647748 
L 259.303133 -251.095921 
L 259.307455 -252.544094 
L 259.309092 -253.992267 
L 259.311014 -255.44044 
L 259.314762 -256.888613 
L 259.317331 -258.336786 
L 259.313666 -259.784959 
L 259.302818 -261.233132 
L 259.29103 -262.681305 
L 259.287429 -264.129478 
L 259.343174 -264.129478 
L 259.343174 -264.129478 
L 259.343174 -262.681305 
L 259.343174 -261.233132 
L 259.343174 -259.784959 
L 259.343174 -258.336786 
L 259.343174 -256.888613 
L 259.343174 -255.44044 
L 259.343174 -253.992267 
L 259.343174 -252.544094 
L 259.343174 -251.095921 
L 259.343174 -249.647748 
L 259.343174 -248.199575 
L 259.343174 -246.751402 
L 259.343174 -245.30323 
L 259.343174 -243.855057 
L 259.343174 -242.406884 
L 259.343174 -240.958711 
L 259.343174 -239.510538 
L 259.343174 -238.062365 
L 259.343174 -236.614192 
L 259.343174 -235.166019 
L 259.343174 -233.717846 
L 259.343174 -232.269673 
L 259.343174 -230.8215 
L 259.343174 -229.373327 
L 259.343174 -227.925154 
L 259.343174 -226.476981 
L 259.343174 -225.028808 
L 259.343174 -223.580635 
L 259.343174 -222.132463 
L 259.343174 -220.68429 
L 259.343174 -219.236117 
L 259.343174 -217.787944 
L 259.343174 -216.339771 
L 259.343174 -214.891598 
L 259.343174 -213.443425 
L 259.343174 -211.995252 
L 259.343174 -210.547079 
L 259.343174 -209.098906 
L 259.343174 -207.650733 
L 259.343174 -206.20256 
L 259.343174 -204.754387 
L 259.343174 -203.306214 
L 259.343174 -201.858041 
L 259.343174 -200.409869 
L 259.343174 -198.961696 
L 259.343174 -197.513523 
L 259.343174 -196.06535 
L 259.343174 -194.617177 
L 259.343174 -193.169004 
L 259.343174 -191.720831 
L 259.343174 -190.272658 
L 259.343174 -188.824485 
L 259.343174 -187.376312 
L 259.343174 -185.928139 
L 259.343174 -184.479966 
L 259.343174 -183.031793 
L 259.343174 -181.58362 
L 259.343174 -180.135447 
L 259.343174 -178.687274 
L 259.343174 -177.239102 
L 259.343174 -175.790929 
L 259.343174 -174.342756 
L 259.343174 -172.894583 
L 259.343174 -171.44641 
L 259.343174 -169.998237 
L 259.343174 -168.550064 
L 259.343174 -167.101891 
L 259.343174 -165.653718 
L 259.343174 -164.205545 
L 259.343174 -162.757372 
L 259.343174 -161.309199 
L 259.343174 -159.861026 
L 259.343174 -158.412853 
L 259.343174 -156.96468 
L 259.343174 -155.516508 
L 259.343174 -154.068335 
L 259.343174 -152.620162 
L 259.343174 -151.171989 
L 259.343174 -149.723816 
L 259.343174 -148.275643 
L 259.343174 -146.82747 
L 259.343174 -145.379297 
L 259.343174 -143.931124 
L 259.343174 -142.482951 
L 259.343174 -141.034778 
L 259.343174 -139.586605 
L 259.343174 -138.138432 
L 259.343174 -136.690259 
L 259.343174 -135.242086 
L 259.343174 -133.793913 
L 259.343174 -132.345741 
L 259.343174 -130.897568 
L 259.343174 -129.449395 
L 259.343174 -128.001222 
L 259.343174 -126.553049 
L 259.343174 -125.104876 
L 259.343174 -123.656703 
L 259.343174 -122.20853 
L 259.343174 -120.760357 
z
" style="stroke: #3f3f3f"/>
    </defs>
    <g clip-path="url(#p42c666f1f5)">
     <use xlink:href="#m7cd4dfd1fa" x="0" y="382.85987" style="fill: #3274a1; stroke: #3f3f3f"/>
    </g>
   </g>
   <g id="FillBetweenPolyCollection_4">
    <defs>
     <path id="mfb5a348dc1" d="M 259.801057 -140.145517 
L 259.343174 -140.145517 
L 259.343174 -141.282402 
L 259.343174 -142.419287 
L 259.343174 -143.556173 
L 259.343174 -144.693058 
L 259.343174 -145.829943 
L 259.343174 -146.966829 
L 259.343174 -148.103714 
L 259.343174 -149.240599 
L 259.343174 -150.377485 
L 259.343174 -151.51437 
L 259.343174 -152.651255 
L 259.343174 -153.788141 
L 259.343174 -154.925026 
L 259.343174 -156.061911 
L 259.343174 -157.198796 
L 259.343174 -158.335682 
L 259.343174 -159.472567 
L 259.343174 -160.609452 
L 259.343174 -161.746338 
L 259.343174 -162.883223 
L 259.343174 -164.020108 
L 259.343174 -165.156994 
L 259.343174 -166.293879 
L 259.343174 -167.430764 
L 259.343174 -168.56765 
L 259.343174 -169.704535 
L 259.343174 -170.84142 
L 259.343174 -171.978305 
L 259.343174 -173.115191 
L 259.343174 -174.252076 
L 259.343174 -175.388961 
L 259.343174 -176.525847 
L 259.343174 -177.662732 
L 259.343174 -178.799617 
L 259.343174 -179.936503 
L 259.343174 -181.073388 
L 259.343174 -182.210273 
L 259.343174 -183.347159 
L 259.343174 -184.484044 
L 259.343174 -185.620929 
L 259.343174 -186.757814 
L 259.343174 -187.8947 
L 259.343174 -189.031585 
L 259.343174 -190.16847 
L 259.343174 -191.305356 
L 259.343174 -192.442241 
L 259.343174 -193.579126 
L 259.343174 -194.716012 
L 259.343174 -195.852897 
L 259.343174 -196.989782 
L 259.343174 -198.126668 
L 259.343174 -199.263553 
L 259.343174 -200.400438 
L 259.343174 -201.537324 
L 259.343174 -202.674209 
L 259.343174 -203.811094 
L 259.343174 -204.947979 
L 259.343174 -206.084865 
L 259.343174 -207.22175 
L 259.343174 -208.358635 
L 259.343174 -209.495521 
L 259.343174 -210.632406 
L 259.343174 -211.769291 
L 259.343174 -212.906177 
L 259.343174 -214.043062 
L 259.343174 -215.179947 
L 259.343174 -216.316833 
L 259.343174 -217.453718 
L 259.343174 -218.590603 
L 259.343174 -219.727488 
L 259.343174 -220.864374 
L 259.343174 -222.001259 
L 259.343174 -223.138144 
L 259.343174 -224.27503 
L 259.343174 -225.411915 
L 259.343174 -226.5488 
L 259.343174 -227.685686 
L 259.343174 -228.822571 
L 259.343174 -229.959456 
L 259.343174 -231.096342 
L 259.343174 -232.233227 
L 259.343174 -233.370112 
L 259.343174 -234.506997 
L 259.343174 -235.643883 
L 259.343174 -236.780768 
L 259.343174 -237.917653 
L 259.343174 -239.054539 
L 259.343174 -240.191424 
L 259.343174 -241.328309 
L 259.343174 -242.465195 
L 259.343174 -243.60208 
L 259.343174 -244.738965 
L 259.343174 -245.875851 
L 259.343174 -247.012736 
L 259.343174 -248.149621 
L 259.343174 -249.286506 
L 259.343174 -250.423392 
L 259.343174 -251.560277 
L 259.343174 -252.697162 
L 259.369419 -252.697162 
L 259.369419 -252.697162 
L 259.367496 -251.560277 
L 259.364323 -250.423392 
L 259.365861 -249.286506 
L 259.369287 -248.149621 
L 259.367404 -247.012736 
L 259.359347 -245.875851 
L 259.350763 -244.738965 
L 259.345909 -243.60208 
L 259.345165 -242.465195 
L 259.348352 -241.328309 
L 259.355721 -240.191424 
L 259.364628 -239.054539 
L 259.36868 -237.917653 
L 259.364245 -236.780768 
L 259.355268 -235.643883 
L 259.347998 -234.506997 
L 259.344513 -233.370112 
L 259.34346 -232.233227 
L 259.343438 -231.096342 
L 259.344481 -229.959456 
L 259.348405 -228.822571 
L 259.358114 -227.685686 
L 259.373723 -226.5488 
L 259.388216 -225.411915 
L 259.391767 -224.27503 
L 259.383911 -223.138144 
L 259.376937 -222.001259 
L 259.384528 -220.864374 
L 259.410524 -219.727488 
L 259.446914 -218.590603 
L 259.477687 -217.453718 
L 259.490608 -216.316833 
L 259.490322 -215.179947 
L 259.490818 -214.043062 
L 259.494365 -212.906177 
L 259.491061 -211.769291 
L 259.480353 -210.632406 
L 259.478394 -209.495521 
L 259.499461 -208.358635 
L 259.541853 -207.22175 
L 259.593542 -206.084865 
L 259.643237 -204.947979 
L 259.684026 -203.811094 
L 259.710397 -202.674209 
L 259.723192 -201.537324 
L 259.735274 -200.400438 
L 259.761016 -199.263553 
L 259.806128 -198.126668 
L 259.868305 -196.989782 
L 259.939814 -195.852897 
L 260.012861 -194.716012 
L 260.092967 -193.579126 
L 260.215754 -192.442241 
L 260.433301 -191.305356 
L 260.750792 -190.16847 
L 261.085487 -189.031585 
L 261.324896 -187.8947 
L 261.426266 -186.757814 
L 261.442328 -185.620929 
L 261.464964 -184.484044 
L 261.550105 -183.347159 
L 261.667464 -182.210273 
L 261.732642 -181.073388 
L 261.708754 -179.936503 
L 261.63284 -178.799617 
L 261.538296 -177.662732 
L 261.425015 -176.525847 
L 261.310322 -175.388961 
L 261.227027 -174.252076 
L 261.164084 -173.115191 
L 261.072988 -171.978305 
L 260.930695 -170.84142 
L 260.767176 -169.704535 
L 260.637899 -168.56765 
L 260.572394 -167.430764 
L 260.55143 -166.293879 
L 260.544717 -165.156994 
L 260.600806 -164.020108 
L 261.060203 -162.883223 
L 263.026469 -161.746338 
L 268.729162 -160.609452 
L 280.410697 -159.472567 
L 297.190562 -158.335682 
L 313.232658 -157.198796 
L 321.277635 -156.061911 
L 318.662942 -154.925026 
L 308.699745 -153.788141 
L 296.70511 -152.651255 
L 286.190442 -151.51437 
L 278.225462 -150.377485 
L 272.571157 -149.240599 
L 268.656677 -148.103714 
L 265.948464 -146.966829 
L 264.032657 -145.829943 
L 262.630882 -144.693058 
L 261.577555 -143.556173 
L 260.78181 -142.419287 
L 260.199025 -141.282402 
L 259.801057 -140.145517 
z
" style="stroke: #3f3f3f"/>
    </defs>
    <g clip-path="url(#p42c666f1f5)">
     <use xlink:href="#mfb5a348dc1" x="0" y="382.85987" style="fill: #e1812c; stroke: #3f3f3f"/>
    </g>
   </g>
   <g id="FillBetweenPolyCollection_5">
    <defs>
     <path id="mdcb44cabe2" d="M 414.179326 -120.942901 
L 414.099362 -120.942901 
L 414.044727 -122.257976 
L 413.947715 -123.573052 
L 413.770713 -124.888128 
L 413.440243 -126.203204 
L 412.82091 -127.51828 
L 411.695926 -128.833355 
L 409.787087 -130.148431 
L 406.849058 -131.463507 
L 402.834988 -132.778583 
L 398.05728 -134.093658 
L 393.216179 -135.408734 
L 389.21389 -136.72381 
L 386.814752 -138.038886 
L 386.342921 -139.353962 
L 387.59977 -140.669037 
L 390.028255 -141.984113 
L 392.985641 -143.299189 
L 395.948069 -144.614265 
L 398.569159 -145.929341 
L 400.63893 -147.244416 
L 402.03191 -148.559492 
L 402.687659 -149.874568 
L 402.607944 -151.189644 
L 401.84532 -152.50472 
L 400.488581 -153.819795 
L 398.668765 -155.134871 
L 396.587675 -156.449947 
L 394.535064 -157.765023 
L 392.855558 -159.080099 
L 391.863202 -160.395174 
L 391.74554 -161.71025 
L 392.508911 -163.025326 
L 393.9887 -164.340402 
L 395.912399 -165.655477 
L 397.984418 -166.970553 
L 399.960855 -168.285629 
L 401.691188 -169.600705 
L 403.118447 -170.915781 
L 404.248016 -172.230856 
L 405.109487 -173.545932 
L 405.735035 -174.861008 
L 406.16046 -176.176084 
L 406.435438 -177.49116 
L 406.624705 -178.806235 
L 406.794908 -180.121311 
L 406.997994 -181.436387 
L 407.264554 -182.751463 
L 407.608259 -184.066539 
L 408.031007 -185.381614 
L 408.521293 -186.69669 
L 409.050823 -188.011766 
L 409.57954 -189.326842 
L 410.070319 -190.641917 
L 410.502906 -191.956993 
L 410.876534 -193.272069 
L 411.201723 -194.587145 
L 411.490508 -195.902221 
L 411.751918 -197.217296 
L 411.991648 -198.532372 
L 412.211927 -199.847448 
L 412.411037 -201.162524 
L 412.584847 -202.4776 
L 412.731117 -203.792675 
L 412.853787 -205.107751 
L 412.963469 -206.422827 
L 413.072909 -207.737903 
L 413.190135 -209.052979 
L 413.313915 -210.368054 
L 413.43462 -211.68313 
L 413.539871 -212.998206 
L 413.621417 -214.313282 
L 413.679251 -215.628358 
L 413.720967 -216.943433 
L 413.757197 -218.258509 
L 413.796123 -219.573585 
L 413.840195 -220.888661 
L 413.886449 -222.203736 
L 413.92949 -223.518812 
L 413.964911 -224.833888 
L 413.991211 -226.148964 
L 414.009486 -227.46404 
L 414.021615 -228.779115 
L 414.028674 -230.094191 
L 414.031047 -231.409267 
L 414.030039 -232.724343 
L 414.028969 -234.039419 
L 414.031915 -235.354494 
L 414.040703 -236.66957 
L 414.052979 -237.984646 
L 414.063591 -239.299722 
L 414.06845 -240.614798 
L 414.067634 -241.929873 
L 414.065211 -243.244949 
L 414.066199 -244.560025 
L 414.073317 -245.875101 
L 414.085929 -247.190176 
L 414.101364 -248.505252 
L 414.117017 -249.820328 
L 414.131493 -251.135404 
L 414.179326 -251.135404 
L 414.179326 -251.135404 
L 414.179326 -249.820328 
L 414.179326 -248.505252 
L 414.179326 -247.190176 
L 414.179326 -245.875101 
L 414.179326 -244.560025 
L 414.179326 -243.244949 
L 414.179326 -241.929873 
L 414.179326 -240.614798 
L 414.179326 -239.299722 
L 414.179326 -237.984646 
L 414.179326 -236.66957 
L 414.179326 -235.354494 
L 414.179326 -234.039419 
L 414.179326 -232.724343 
L 414.179326 -231.409267 
L 414.179326 -230.094191 
L 414.179326 -228.779115 
L 414.179326 -227.46404 
L 414.179326 -226.148964 
L 414.179326 -224.833888 
L 414.179326 -223.518812 
L 414.179326 -222.203736 
L 414.179326 -220.888661 
L 414.179326 -219.573585 
L 414.179326 -218.258509 
L 414.179326 -216.943433 
L 414.179326 -215.628358 
L 414.179326 -214.313282 
L 414.179326 -212.998206 
L 414.179326 -211.68313 
L 414.179326 -210.368054 
L 414.179326 -209.052979 
L 414.179326 -207.737903 
L 414.179326 -206.422827 
L 414.179326 -205.107751 
L 414.179326 -203.792675 
L 414.179326 -202.4776 
L 414.179326 -201.162524 
L 414.179326 -199.847448 
L 414.179326 -198.532372 
L 414.179326 -197.217296 
L 414.179326 -195.902221 
L 414.179326 -194.587145 
L 414.179326 -193.272069 
L 414.179326 -191.956993 
L 414.179326 -190.641917 
L 414.179326 -189.326842 
L 414.179326 -188.011766 
L 414.179326 -186.69669 
L 414.179326 -185.381614 
L 414.179326 -184.066539 
L 414.179326 -182.751463 
L 414.179326 -181.436387 
L 414.179326 -180.121311 
L 414.179326 -178.806235 
L 414.179326 -177.49116 
L 414.179326 -176.176084 
L 414.179326 -174.861008 
L 414.179326 -173.545932 
L 414.179326 -172.230856 
L 414.179326 -170.915781 
L 414.179326 -169.600705 
L 414.179326 -168.285629 
L 414.179326 -166.970553 
L 414.179326 -165.655477 
L 414.179326 -164.340402 
L 414.179326 -163.025326 
L 414.179326 -161.71025 
L 414.179326 -160.395174 
L 414.179326 -159.080099 
L 414.179326 -157.765023 
L 414.179326 -156.449947 
L 414.179326 -155.134871 
L 414.179326 -153.819795 
L 414.179326 -152.50472 
L 414.179326 -151.189644 
L 414.179326 -149.874568 
L 414.179326 -148.559492 
L 414.179326 -147.244416 
L 414.179326 -145.929341 
L 414.179326 -144.614265 
L 414.179326 -143.299189 
L 414.179326 -141.984113 
L 414.179326 -140.669037 
L 414.179326 -139.353962 
L 414.179326 -138.038886 
L 414.179326 -136.72381 
L 414.179326 -135.408734 
L 414.179326 -134.093658 
L 414.179326 -132.778583 
L 414.179326 -131.463507 
L 414.179326 -130.148431 
L 414.179326 -128.833355 
L 414.179326 -127.51828 
L 414.179326 -126.203204 
L 414.179326 -124.888128 
L 414.179326 -123.573052 
L 414.179326 -122.257976 
L 414.179326 -120.942901 
z
" style="stroke: #3f3f3f"/>
    </defs>
    <g clip-path="url(#p42c666f1f5)">
     <use xlink:href="#mdcb44cabe2" x="0" y="382.85987" style="fill: #3274a1; stroke: #3f3f3f"/>
    </g>
   </g>
   <g id="FillBetweenPolyCollection_6">
    <defs>
     <path id="m42be68dea3" d="M 414.209985 -113.152227 
L 414.179326 -113.152227 
L 414.179326 -114.592133 
L 414.179326 -116.032039 
L 414.179326 -117.471945 
L 414.179326 -118.911851 
L 414.179326 -120.351757 
L 414.179326 -121.791662 
L 414.179326 -123.231568 
L 414.179326 -124.671474 
L 414.179326 -126.11138 
L 414.179326 -127.551286 
L 414.179326 -128.991192 
L 414.179326 -130.431098 
L 414.179326 -131.871003 
L 414.179326 -133.310909 
L 414.179326 -134.750815 
L 414.179326 -136.190721 
L 414.179326 -137.630627 
L 414.179326 -139.070533 
L 414.179326 -140.510438 
L 414.179326 -141.950344 
L 414.179326 -143.39025 
L 414.179326 -144.830156 
L 414.179326 -146.270062 
L 414.179326 -147.709968 
L 414.179326 -149.149874 
L 414.179326 -150.589779 
L 414.179326 -152.029685 
L 414.179326 -153.469591 
L 414.179326 -154.909497 
L 414.179326 -156.349403 
L 414.179326 -157.789309 
L 414.179326 -159.229214 
L 414.179326 -160.66912 
L 414.179326 -162.109026 
L 414.179326 -163.548932 
L 414.179326 -164.988838 
L 414.179326 -166.428744 
L 414.179326 -167.86865 
L 414.179326 -169.308555 
L 414.179326 -170.748461 
L 414.179326 -172.188367 
L 414.179326 -173.628273 
L 414.179326 -175.068179 
L 414.179326 -176.508085 
L 414.179326 -177.94799 
L 414.179326 -179.387896 
L 414.179326 -180.827802 
L 414.179326 -182.267708 
L 414.179326 -183.707614 
L 414.179326 -185.14752 
L 414.179326 -186.587426 
L 414.179326 -188.027331 
L 414.179326 -189.467237 
L 414.179326 -190.907143 
L 414.179326 -192.347049 
L 414.179326 -193.786955 
L 414.179326 -195.226861 
L 414.179326 -196.666766 
L 414.179326 -198.106672 
L 414.179326 -199.546578 
L 414.179326 -200.986484 
L 414.179326 -202.42639 
L 414.179326 -203.866296 
L 414.179326 -205.306202 
L 414.179326 -206.746107 
L 414.179326 -208.186013 
L 414.179326 -209.625919 
L 414.179326 -211.065825 
L 414.179326 -212.505731 
L 414.179326 -213.945637 
L 414.179326 -215.385542 
L 414.179326 -216.825448 
L 414.179326 -218.265354 
L 414.179326 -219.70526 
L 414.179326 -221.145166 
L 414.179326 -222.585072 
L 414.179326 -224.024978 
L 414.179326 -225.464883 
L 414.179326 -226.904789 
L 414.179326 -228.344695 
L 414.179326 -229.784601 
L 414.179326 -231.224507 
L 414.179326 -232.664413 
L 414.179326 -234.104318 
L 414.179326 -235.544224 
L 414.179326 -236.98413 
L 414.179326 -238.424036 
L 414.179326 -239.863942 
L 414.179326 -241.303848 
L 414.179326 -242.743754 
L 414.179326 -244.183659 
L 414.179326 -245.623565 
L 414.179326 -247.063471 
L 414.179326 -248.503377 
L 414.179326 -249.943283 
L 414.179326 -251.383189 
L 414.179326 -252.823094 
L 414.179326 -254.263 
L 414.179326 -255.702906 
L 414.194687 -255.702906 
L 414.194687 -255.702906 
L 414.193717 -254.263 
L 414.191365 -252.823094 
L 414.18983 -251.383189 
L 414.190496 -249.943283 
L 414.192818 -248.503377 
L 414.194862 -247.063471 
L 414.195133 -245.623565 
L 414.194131 -244.183659 
L 414.194196 -242.743754 
L 414.197683 -241.303848 
L 414.205108 -239.863942 
L 414.214848 -238.424036 
L 414.224551 -236.98413 
L 414.232878 -235.544224 
L 414.24003 -234.104318 
L 414.246917 -232.664413 
L 414.254116 -231.224507 
L 414.261679 -229.784601 
L 414.26993 -228.344695 
L 414.28038 -226.904789 
L 414.295193 -225.464883 
L 414.314911 -224.024978 
L 414.337026 -222.585072 
L 414.358229 -221.145166 
L 414.378481 -219.70526 
L 414.401641 -218.265354 
L 414.431475 -216.825448 
L 414.467969 -215.385542 
L 414.507833 -213.945637 
L 414.54761 -212.505731 
L 414.586142 -211.065825 
L 414.625845 -209.625919 
L 414.673368 -208.186013 
L 414.738648 -206.746107 
L 414.831019 -205.306202 
L 414.954428 -203.866296 
L 415.10684 -202.42639 
L 415.286406 -200.986484 
L 415.499261 -199.546578 
L 415.758788 -198.106672 
L 416.072386 -196.666766 
L 416.426554 -195.226861 
L 416.786779 -193.786955 
L 417.114575 -192.347049 
L 417.38571 -190.907143 
L 417.595874 -189.467237 
L 417.757412 -188.027331 
L 417.895254 -186.587426 
L 418.038831 -185.14752 
L 418.205822 -183.707614 
L 418.388401 -182.267708 
L 418.559906 -180.827802 
L 418.706369 -179.387896 
L 418.86407 -177.94799 
L 419.131873 -176.508085 
L 419.642887 -175.068179 
L 420.514728 -173.628273 
L 421.813304 -172.188367 
L 423.541799 -170.748461 
L 425.634095 -169.308555 
L 427.932621 -167.86865 
L 430.165929 -166.428744 
L 431.966803 -164.988838 
L 432.953441 -163.548932 
L 432.854685 -162.109026 
L 431.630692 -160.66912 
L 429.526928 -159.229214 
L 427.012127 -157.789309 
L 424.613632 -156.349403 
L 422.739277 -154.909497 
L 421.581008 -153.469591 
L 421.121236 -152.029685 
L 421.189777 -150.589779 
L 421.523959 -149.149874 
L 421.849301 -147.709968 
L 422.008374 -146.270062 
L 422.061631 -144.830156 
L 422.217855 -143.39025 
L 422.598578 -141.950344 
L 423.057228 -140.510438 
L 423.245402 -139.070533 
L 422.857439 -137.630627 
L 421.825408 -136.190721 
L 420.334729 -134.750815 
L 418.702921 -133.310909 
L 417.22814 -131.871003 
L 416.086465 -130.431098 
L 415.310341 -128.991192 
L 414.834407 -127.551286 
L 414.562063 -126.11138 
L 414.410715 -124.671474 
L 414.325821 -123.231568 
L 414.276802 -121.791662 
L 414.248283 -120.351757 
L 414.232523 -118.911851 
L 414.224584 -117.471945 
L 414.220277 -116.032039 
L 414.216086 -114.592133 
L 414.209985 -113.152227 
z
" style="stroke: #3f3f3f"/>
    </defs>
    <g clip-path="url(#p42c666f1f5)">
     <use xlink:href="#m42be68dea3" x="0" y="382.85987" style="fill: #e1812c; stroke: #3f3f3f"/>
    </g>
   </g>
   <g id="FillBetweenPolyCollection_7">
    <defs>
     <path id="m344c2b503c" d="M 569.015478 -125.061354 
L 568.93666 -125.061354 
L 568.87364 -126.107406 
L 568.749286 -127.153458 
L 568.514594 -128.19951 
L 568.098826 -129.245561 
L 567.413154 -130.291613 
L 566.364997 -131.337665 
L 564.883615 -132.383717 
L 562.950172 -133.429769 
L 560.618358 -134.475821 
L 558.011034 -135.521873 
L 555.28789 -136.567925 
L 552.595225 -137.613977 
L 550.021372 -138.660029 
L 547.580978 -139.706081 
L 545.237045 -140.752133 
L 542.949883 -141.798185 
L 540.728359 -142.844237 
L 538.658351 -143.890289 
L 536.894976 -144.936341 
L 535.622123 -145.982393 
L 534.996519 -147.028445 
L 535.098776 -148.074497 
L 535.909399 -149.120549 
L 537.316633 -150.166601 
L 539.150161 -151.212653 
L 541.225645 -152.258705 
L 543.383467 -153.304757 
L 545.510624 -154.350809 
L 547.543721 -155.396861 
L 549.458544 -156.442913 
L 551.254619 -157.488964 
L 552.941413 -158.535016 
L 554.528873 -159.581068 
L 556.021886 -160.62712 
L 557.417396 -161.673172 
L 558.703862 -162.719224 
L 559.863473 -163.765276 
L 560.876732 -164.811328 
L 561.727607 -165.85738 
L 562.407038 -166.903432 
L 562.913955 -167.949484 
L 563.2545 -168.995536 
L 563.440482 -170.041588 
L 563.487429 -171.08764 
L 563.41241 -172.133692 
L 563.232799 -173.179744 
L 562.96761 -174.225796 
L 562.641425 -175.271848 
L 562.287979 -176.3179 
L 561.949263 -177.363952 
L 561.668556 -178.410004 
L 561.480497 -179.456056 
L 561.403714 -180.502108 
L 561.439442 -181.54816 
L 561.575102 -182.594212 
L 561.789284 -183.640264 
L 562.055849 -184.686316 
L 562.347547 -185.732367 
L 562.640377 -186.778419 
L 562.918141 -187.824471 
L 563.174911 -188.870523 
L 563.413548 -189.916575 
L 563.640793 -190.962627 
L 563.86162 -192.008679 
L 564.076031 -193.054731 
L 564.280198 -194.100783 
L 564.471524 -195.146835 
L 564.654647 -196.192887 
L 564.844154 -197.238939 
L 565.061016 -198.284991 
L 565.323626 -199.331043 
L 565.638251 -200.377095 
L 565.994784 -201.423147 
L 566.370561 -202.469199 
L 566.739898 -203.515251 
L 567.083578 -204.561303 
L 567.393168 -205.607355 
L 567.668946 -206.653407 
L 567.914252 -207.699459 
L 568.130608 -208.745511 
L 568.316386 -209.791563 
L 568.468843 -210.837615 
L 568.587277 -211.883667 
L 568.674883 -212.929719 
L 568.738341 -213.97577 
L 568.785725 -215.021822 
L 568.824122 -216.067874 
L 568.858133 -217.113926 
L 568.889655 -218.159978 
L 568.918602 -219.20603 
L 568.943945 -220.252082 
L 568.964545 -221.298134 
L 568.979647 -222.344186 
L 568.989094 -223.390238 
L 568.993429 -224.43629 
L 568.993881 -225.482342 
L 568.992209 -226.528394 
L 568.990326 -227.574446 
L 568.989794 -228.620498 
L 569.015478 -228.620498 
L 569.015478 -228.620498 
L 569.015478 -227.574446 
L 569.015478 -226.528394 
L 569.015478 -225.482342 
L 569.015478 -224.43629 
L 569.015478 -223.390238 
L 569.015478 -222.344186 
L 569.015478 -221.298134 
L 569.015478 -220.252082 
L 569.015478 -219.20603 
L 569.015478 -218.159978 
L 569.015478 -217.113926 
L 569.015478 -216.067874 
L 569.015478 -215.021822 
L 569.015478 -213.97577 
L 569.015478 -212.929719 
L 569.015478 -211.883667 
L 569.015478 -210.837615 
L 569.015478 -209.791563 
L 569.015478 -208.745511 
L 569.015478 -207.699459 
L 569.015478 -206.653407 
L 569.015478 -205.607355 
L 569.015478 -204.561303 
L 569.015478 -203.515251 
L 569.015478 -202.469199 
L 569.015478 -201.423147 
L 569.015478 -200.377095 
L 569.015478 -199.331043 
L 569.015478 -198.284991 
L 569.015478 -197.238939 
L 569.015478 -196.192887 
L 569.015478 -195.146835 
L 569.015478 -194.100783 
L 569.015478 -193.054731 
L 569.015478 -192.008679 
L 569.015478 -190.962627 
L 569.015478 -189.916575 
L 569.015478 -188.870523 
L 569.015478 -187.824471 
L 569.015478 -186.778419 
L 569.015478 -185.732367 
L 569.015478 -184.686316 
L 569.015478 -183.640264 
L 569.015478 -182.594212 
L 569.015478 -181.54816 
L 569.015478 -180.502108 
L 569.015478 -179.456056 
L 569.015478 -178.410004 
L 569.015478 -177.363952 
L 569.015478 -176.3179 
L 569.015478 -175.271848 
L 569.015478 -174.225796 
L 569.015478 -173.179744 
L 569.015478 -172.133692 
L 569.015478 -171.08764 
L 569.015478 -170.041588 
L 569.015478 -168.995536 
L 569.015478 -167.949484 
L 569.015478 -166.903432 
L 569.015478 -165.85738 
L 569.015478 -164.811328 
L 569.015478 -163.765276 
L 569.015478 -162.719224 
L 569.015478 -161.673172 
L 569.015478 -160.62712 
L 569.015478 -159.581068 
L 569.015478 -158.535016 
L 569.015478 -157.488964 
L 569.015478 -156.442913 
L 569.015478 -155.396861 
L 569.015478 -154.350809 
L 569.015478 -153.304757 
L 569.015478 -152.258705 
L 569.015478 -151.212653 
L 569.015478 -150.166601 
L 569.015478 -149.120549 
L 569.015478 -148.074497 
L 569.015478 -147.028445 
L 569.015478 -145.982393 
L 569.015478 -144.936341 
L 569.015478 -143.890289 
L 569.015478 -142.844237 
L 569.015478 -141.798185 
L 569.015478 -140.752133 
L 569.015478 -139.706081 
L 569.015478 -138.660029 
L 569.015478 -137.613977 
L 569.015478 -136.567925 
L 569.015478 -135.521873 
L 569.015478 -134.475821 
L 569.015478 -133.429769 
L 569.015478 -132.383717 
L 569.015478 -131.337665 
L 569.015478 -130.291613 
L 569.015478 -129.245561 
L 569.015478 -128.19951 
L 569.015478 -127.153458 
L 569.015478 -126.107406 
L 569.015478 -125.061354 
z
" style="stroke: #3f3f3f"/>
    </defs>
    <g clip-path="url(#p42c666f1f5)">
     <use xlink:href="#m344c2b503c" x="0" y="382.85987" style="fill: #3274a1; stroke: #3f3f3f"/>
    </g>
   </g>
   <g id="FillBetweenPolyCollection_8">
    <defs>
     <path id="mc3e3f406de" d="M 569.20388 -132.196722 
L 569.015478 -132.196722 
L 569.015478 -133.533646 
L 569.015478 -134.87057 
L 569.015478 -136.207495 
L 569.015478 -137.544419 
L 569.015478 -138.881343 
L 569.015478 -140.218268 
L 569.015478 -141.555192 
L 569.015478 -142.892116 
L 569.015478 -144.229041 
L 569.015478 -145.565965 
L 569.015478 -146.90289 
L 569.015478 -148.239814 
L 569.015478 -149.576738 
L 569.015478 -150.913663 
L 569.015478 -152.250587 
L 569.015478 -153.587511 
L 569.015478 -154.924436 
L 569.015478 -156.26136 
L 569.015478 -157.598284 
L 569.015478 -158.935209 
L 569.015478 -160.272133 
L 569.015478 -161.609058 
L 569.015478 -162.945982 
L 569.015478 -164.282906 
L 569.015478 -165.619831 
L 569.015478 -166.956755 
L 569.015478 -168.293679 
L 569.015478 -169.630604 
L 569.015478 -170.967528 
L 569.015478 -172.304452 
L 569.015478 -173.641377 
L 569.015478 -174.978301 
L 569.015478 -176.315226 
L 569.015478 -177.65215 
L 569.015478 -178.989074 
L 569.015478 -180.325999 
L 569.015478 -181.662923 
L 569.015478 -182.999847 
L 569.015478 -184.336772 
L 569.015478 -185.673696 
L 569.015478 -187.010621 
L 569.015478 -188.347545 
L 569.015478 -189.684469 
L 569.015478 -191.021394 
L 569.015478 -192.358318 
L 569.015478 -193.695242 
L 569.015478 -195.032167 
L 569.015478 -196.369091 
L 569.015478 -197.706015 
L 569.015478 -199.04294 
L 569.015478 -200.379864 
L 569.015478 -201.716789 
L 569.015478 -203.053713 
L 569.015478 -204.390637 
L 569.015478 -205.727562 
L 569.015478 -207.064486 
L 569.015478 -208.40141 
L 569.015478 -209.738335 
L 569.015478 -211.075259 
L 569.015478 -212.412183 
L 569.015478 -213.749108 
L 569.015478 -215.086032 
L 569.015478 -216.422957 
L 569.015478 -217.759881 
L 569.015478 -219.096805 
L 569.015478 -220.43373 
L 569.015478 -221.770654 
L 569.015478 -223.107578 
L 569.015478 -224.444503 
L 569.015478 -225.781427 
L 569.015478 -227.118351 
L 569.015478 -228.455276 
L 569.015478 -229.7922 
L 569.015478 -231.129125 
L 569.015478 -232.466049 
L 569.015478 -233.802973 
L 569.015478 -235.139898 
L 569.015478 -236.476822 
L 569.015478 -237.813746 
L 569.015478 -239.150671 
L 569.015478 -240.487595 
L 569.015478 -241.82452 
L 569.015478 -243.161444 
L 569.015478 -244.498368 
L 569.015478 -245.835293 
L 569.015478 -247.172217 
L 569.015478 -248.509141 
L 569.015478 -249.846066 
L 569.015478 -251.18299 
L 569.015478 -252.519914 
L 569.015478 -253.856839 
L 569.015478 -255.193763 
L 569.015478 -256.530688 
L 569.015478 -257.867612 
L 569.015478 -259.204536 
L 569.015478 -260.541461 
L 569.015478 -261.878385 
L 569.015478 -263.215309 
L 569.015478 -264.552234 
L 569.031861 -264.552234 
L 569.031861 -264.552234 
L 569.031952 -263.215309 
L 569.031171 -261.878385 
L 569.030922 -260.541461 
L 569.031579 -259.204536 
L 569.032107 -257.867612 
L 569.031111 -256.530688 
L 569.028209 -255.193763 
L 569.024357 -253.856839 
L 569.02107 -252.519914 
L 569.019517 -251.18299 
L 569.020187 -249.846066 
L 569.022927 -248.509141 
L 569.026951 -247.172217 
L 569.03098 -245.835293 
L 569.033855 -244.498368 
L 569.03528 -243.161444 
L 569.03584 -241.82452 
L 569.036218 -240.487595 
L 569.03669 -239.150671 
L 569.037587 -237.813746 
L 569.039872 -236.476822 
L 569.044534 -235.139898 
L 569.051141 -233.802973 
L 569.057259 -232.466049 
L 569.059849 -231.129125 
L 569.05772 -229.7922 
L 569.053069 -228.455276 
L 569.051018 -227.118351 
L 569.057804 -225.781427 
L 569.078853 -224.444503 
L 569.116969 -223.107578 
L 569.17039 -221.770654 
L 569.232016 -220.43373 
L 569.292249 -219.096805 
L 569.345217 -217.759881 
L 569.393711 -216.422957 
L 569.447918 -215.086032 
L 569.518399 -213.749108 
L 569.609031 -212.412183 
L 569.715566 -211.075259 
L 569.830463 -209.738335 
L 569.949711 -208.40141 
L 570.076096 -207.064486 
L 570.215937 -205.727562 
L 570.370958 -204.390637 
L 570.531639 -203.053713 
L 570.679057 -201.716789 
L 570.795972 -200.379864 
L 570.879762 -199.04294 
L 570.948165 -197.706015 
L 571.033557 -196.369091 
L 571.167684 -195.032167 
L 571.365624 -193.695242 
L 571.621089 -192.358318 
L 571.91723 -191.021394 
L 572.242591 -189.684469 
L 572.59666 -188.347545 
L 572.979313 -187.010621 
L 573.37368 -185.673696 
L 573.740134 -184.336772 
L 574.031319 -182.999847 
L 574.217448 -181.662923 
L 574.298724 -180.325999 
L 574.295044 -178.989074 
L 574.227309 -177.65215 
L 574.109915 -176.315226 
L 573.957694 -174.978301 
L 573.796463 -173.641377 
L 573.668122 -172.304452 
L 573.630159 -170.967528 
L 573.751464 -169.630604 
L 574.10125 -168.293679 
L 574.727107 -166.956755 
L 575.627675 -165.619831 
L 576.73585 -164.282906 
L 577.930151 -162.945982 
L 579.083128 -161.609058 
L 580.135637 -160.272133 
L 581.158958 -158.935209 
L 582.353373 -157.598284 
L 583.952525 -156.26136 
L 586.056372 -154.924436 
L 588.478392 -153.587511 
L 590.72206 -152.250587 
L 592.14824 -150.913663 
L 592.262125 -149.576738 
L 590.939698 -148.239814 
L 588.449796 -146.90289 
L 585.287456 -145.565965 
L 581.958366 -144.229041 
L 578.839357 -142.892116 
L 576.144346 -141.555192 
L 573.956405 -140.218268 
L 572.276154 -138.881343 
L 571.057507 -137.544419 
L 570.227107 -136.207495 
L 569.697572 -134.87057 
L 569.381479 -133.533646 
L 569.20388 -132.196722 
z
" style="stroke: #3f3f3f"/>
    </defs>
    <g clip-path="url(#p42c666f1f5)">
     <use xlink:href="#mc3e3f406de" x="0" y="382.85987" style="fill: #e1812c; stroke: #3f3f3f"/>
    </g>
   </g>
   <g id="patch_3">
    <path d="M 104.507022 223.496675 
L 104.507022 223.496675 
L 104.507022 223.496675 
L 104.507022 223.496675 
z
" clip-path="url(#p42c666f1f5)" style="fill: #3274a1; stroke: #3f3f3f; stroke-linejoin: miter"/>
   </g>
   <g id="patch_4">
    <path d="M 104.507022 223.496675 
L 104.507022 223.496675 
L 104.507022 223.496675 
L 104.507022 223.496675 
z
" clip-path="url(#p42c666f1f5)" style="fill: #e1812c; stroke: #3f3f3f; stroke-linejoin: miter"/>
   </g>
   <g id="matplotlib.axis_1">
    <g id="xtick_1">
     <g id="line2d_1">
      <defs>
       <path id="mb9cb2f14bf" d="M 0 0 
L 0 3.5 
" style="stroke: #000000; stroke-width: 0.8"/>
      </defs>
      <g>
       <use xlink:href="#mb9cb2f14bf" x="104.507022" y="279.317812" style="stroke: #000000; stroke-width: 0.8"/>
      </g>
     </g>
     <g id="text_1">
      <text style="font-size: 11px; font-family: 'DejaVu Sans'; text-anchor: end" x="110.417219" y="292.22801" transform="rotate(-45 110.417219 292.22801)">Cell cycle</text>
     </g>
    </g>
    <g id="xtick_2">
     <g id="line2d_2">
      <g>
       <use xlink:href="#mb9cb2f14bf" x="259.343174" y="279.317812" style="stroke: #000000; stroke-width: 0.8"/>
      </g>
     </g>
     <g id="text_2">
      <text style="font-size: 11px; font-family: 'DejaVu Sans'; text-anchor: end" x="265.253371" y="292.22801" transform="rotate(-45 265.253371 292.22801)">DNA repair</text>
     </g>
    </g>
    <g id="xtick_3">
     <g id="line2d_3">
      <g>
       <use xlink:href="#mb9cb2f14bf" x="414.179326" y="279.317812" style="stroke: #000000; stroke-width: 0.8"/>
      </g>
     </g>
     <g id="text_3">
      <text style="font-size: 11px; font-family: 'DejaVu Sans'; text-anchor: end" x="420.089523" y="292.22801" transform="rotate(-45 420.089523 292.22801)">IFN response</text>
     </g>
    </g>
    <g id="xtick_4">
     <g id="line2d_4">
      <g>
       <use xlink:href="#mb9cb2f14bf" x="569.015478" y="279.317812" style="stroke: #000000; stroke-width: 0.8"/>
      </g>
     </g>
     <g id="text_4">
      <text style="font-size: 11px; font-family: 'DejaVu Sans'; text-anchor: end" x="574.925676" y="292.22801" transform="rotate(-45 574.925676 292.22801)">Antigen presentation</text>
     </g>
    </g>
   </g>
   <g id="matplotlib.axis_2">
    <g id="ytick_1">
     <g id="line2d_5">
      <defs>
       <path id="m1ee412e955" d="M 0 0 
L -3.5 0 
" style="stroke: #000000; stroke-width: 0.8"/>
      </defs>
      <g>
       <use xlink:href="#m1ee412e955" x="43.81125" y="256.401028" style="stroke: #000000; stroke-width: 0.8"/>
      </g>
     </g>
     <g id="text_5">
      <text style="font-size: 11px; font-family: 'DejaVu Sans'; text-anchor: end" x="36.81125" y="260.580169" transform="rotate(-0 36.81125 260.580169)">-2</text>
     </g>
    </g>
    <g id="ytick_2">
     <g id="line2d_6">
      <g>
       <use xlink:href="#m1ee412e955" x="43.81125" y="223.496675" style="stroke: #000000; stroke-width: 0.8"/>
      </g>
     </g>
     <g id="text_6">
      <text style="font-size: 11px; font-family: 'DejaVu Sans'; text-anchor: end" x="36.81125" y="227.675816" transform="rotate(-0 36.81125 227.675816)">0</text>
     </g>
    </g>
    <g id="ytick_3">
     <g id="line2d_7">
      <g>
       <use xlink:href="#m1ee412e955" x="43.81125" y="190.592321" style="stroke: #000000; stroke-width: 0.8"/>
      </g>
     </g>
     <g id="text_7">
      <text style="font-size: 11px; font-family: 'DejaVu Sans'; text-anchor: end" x="36.81125" y="194.771462" transform="rotate(-0 36.81125 194.771462)">2</text>
     </g>
    </g>
    <g id="ytick_4">
     <g id="line2d_8">
      <g>
       <use xlink:href="#m1ee412e955" x="43.81125" y="157.687968" style="stroke: #000000; stroke-width: 0.8"/>
      </g>
     </g>
     <g id="text_8">
      <text style="font-size: 11px; font-family: 'DejaVu Sans'; text-anchor: end" x="36.81125" y="161.867109" transform="rotate(-0 36.81125 161.867109)">4</text>
     </g>
    </g>
    <g id="ytick_5">
     <g id="line2d_9">
      <g>
       <use xlink:href="#m1ee412e955" x="43.81125" y="124.783615" style="stroke: #000000; stroke-width: 0.8"/>
      </g>
     </g>
     <g id="text_9">
      <text style="font-size: 11px; font-family: 'DejaVu Sans'; text-anchor: end" x="36.81125" y="128.962755" transform="rotate(-0 36.81125 128.962755)">6</text>
     </g>
    </g>
    <g id="ytick_6">
     <g id="line2d_10">
      <g>
       <use xlink:href="#m1ee412e955" x="43.81125" y="91.879261" style="stroke: #000000; stroke-width: 0.8"/>
      </g>
     </g>
     <g id="text_10">
      <text style="font-size: 11px; font-family: 'DejaVu Sans'; text-anchor: end" x="36.81125" y="96.058402" transform="rotate(-0 36.81125 96.058402)">8</text>
     </g>
    </g>
    <g id="ytick_7">
     <g id="line2d_11">
      <g>
       <use xlink:href="#m1ee412e955" x="43.81125" y="58.974908" style="stroke: #000000; stroke-width: 0.8"/>
      </g>
     </g>
     <g id="text_11">
      <text style="font-size: 11px; font-family: 'DejaVu Sans'; text-anchor: end" x="36.81125" y="63.154048" transform="rotate(-0 36.81125 63.154048)">10</text>
     </g>
    </g>
    <g id="text_12">
     <text style="font-size: 12px; font-family: 'DejaVu Sans'; text-anchor: middle" x="16.318125" y="154.577812" transform="rotate(-90 16.318125 154.577812)">Signature score</text>
    </g>
   </g>
   <g id="line2d_12">
    <defs>
     <path id="m3dd199bf47" d="M 0 1.75 
C 0.464105 1.75 0.909265 1.565609 1.237437 1.237437 
C 1.565609 0.909265 1.75 0.464105 1.75 0 
C 1.75 -0.464105 1.565609 -0.909265 1.237437 -1.237437 
C 0.909265 -1.565609 0.464105 -1.75 0 -1.75 
C -0.464105 -1.75 -0.909265 -1.565609 -1.237437 -1.237437 
C -1.565609 -0.909265 -1.75 -0.464105 -1.75 0 
C -1.75 0.464105 -1.565609 0.909265 -1.237437 1.237437 
C -0.909265 1.565609 -0.464105 1.75 0 1.75 
z
" style="stroke: #1f77b4; stroke-width: 2.025"/>
    </defs>
    <g clip-path="url(#p42c666f1f5)">
     <use xlink:href="#m3dd199bf47" x="85.152503" y="229.169859" style="fill: #1f77b4; stroke: #1f77b4; stroke-width: 2.025"/>
     <use xlink:href="#m3dd199bf47" x="239.988655" y="227.500377" style="fill: #1f77b4; stroke: #1f77b4; stroke-width: 2.025"/>
     <use xlink:href="#m3dd199bf47" x="394.824807" y="225.514734" style="fill: #1f77b4; stroke: #1f77b4; stroke-width: 2.025"/>
     <use xlink:href="#m3dd199bf47" x="549.660959" y="231.721738" style="fill: #1f77b4; stroke: #1f77b4; stroke-width: 2.025"/>
    </g>
   </g>
   <g id="line2d_13">
    <defs>
     <path id="m578130dbd1" d="M 0 1.75 
C 0.464105 1.75 0.909265 1.565609 1.237437 1.237437 
C 1.565609 0.909265 1.75 0.464105 1.75 0 
C 1.75 -0.464105 1.565609 -0.909265 1.237437 -1.237437 
C 0.909265 -1.565609 0.464105 -1.75 0 -1.75 
C -0.464105 -1.75 -0.909265 -1.565609 -1.237437 -1.237437 
C -1.565609 -0.909265 -1.75 -0.464105 -1.75 0 
C -1.75 0.464105 -1.565609 0.909265 -1.237437 1.237437 
C -0.909265 1.565609 -0.464105 1.75 0 1.75 
z
" style="stroke: #ff7f0e; stroke-width: 2.025"/>
    </defs>
    <g clip-path="url(#p42c666f1f5)">
     <use xlink:href="#m578130dbd1" x="123.861541" y="229.7266" style="fill: #ff7f0e; stroke: #ff7f0e; stroke-width: 2.025"/>
     <use xlink:href="#m578130dbd1" x="278.697693" y="227.12327" style="fill: #ff7f0e; stroke: #ff7f0e; stroke-width: 2.025"/>
     <use xlink:href="#m578130dbd1" x="433.533845" y="221.093646" style="fill: #ff7f0e; stroke: #ff7f0e; stroke-width: 2.025"/>
     <use xlink:href="#m578130dbd1" x="588.369997" y="228.044014" style="fill: #ff7f0e; stroke: #ff7f0e; stroke-width: 2.025"/>
    </g>
   </g>
   <g id="line2d_14"/>
   <g id="line2d_15"/>
   <g id="line2d_16">
    <path d="M 70.443068 64.818829 
L 70.443068 58.476118 
L 138.570975 58.476118 
L 138.570975 64.818829 
" clip-path="url(#p42c666f1f5)" style="fill: none; stroke: #000000; stroke-linecap: square"/>
   </g>
   <g id="line2d_17">
    <path d="M 225.27922 106.044969 
L 225.27922 99.702257 
L 293.407127 99.702257 
L 293.407127 106.044969 
" clip-path="url(#p42c666f1f5)" style="fill: none; stroke: #000000; stroke-linecap: square"/>
   </g>
   <g id="line2d_18">
    <path d="M 380.115373 114.471541 
L 380.115373 108.128829 
L 448.24328 108.128829 
L 448.24328 114.471541 
" clip-path="url(#p42c666f1f5)" style="fill: none; stroke: #000000; stroke-linecap: square"/>
   </g>
   <g id="line2d_19">
    <path d="M 534.951525 105.622213 
L 534.951525 99.279501 
L 603.079432 99.279501 
L 603.079432 105.622213 
" clip-path="url(#p42c666f1f5)" style="fill: none; stroke: #000000; stroke-linecap: square"/>
   </g>
   <g id="patch_5">
    <path d="M 43.81125 279.317812 
L 43.81125 29.837812 
" style="fill: none; stroke: #000000; stroke-width: 0.8; stroke-linejoin: miter; stroke-linecap: square"/>
   </g>
   <g id="patch_6">
    <path d="M 629.71125 279.317812 
L 629.71125 29.837812 
" style="fill: none; stroke: #000000; stroke-width: 0.8; stroke-linejoin: miter; stroke-linecap: square"/>
   </g>
   <g id="patch_7">
    <path d="M 43.81125 279.317812 
L 629.71125 279.317812 
" style="fill: none; stroke: #000000; stroke-width: 0.8; stroke-linejoin: miter; stroke-linecap: square"/>
   </g>
   <g id="patch_8">
    <path d="M 43.81125 29.837812 
L 629.71125 29.837812 
" style="fill: none; stroke: #000000; stroke-width: 0.8; stroke-linejoin: miter; stroke-linecap: square"/>
   </g>
   <g id="text_13">
    <text style="font-weight: 700; font-size: 11px; font-family: 'DejaVu Sans'; text-anchor: middle" x="104.507022" y="54.074224" transform="rotate(-0 104.507022 54.074224)">***</text>
   </g>
   <g id="text_14">
    <text style="font-weight: 700; font-size: 11px; font-family: 'DejaVu Sans'; text-anchor: middle" x="259.343174" y="95.300364" transform="rotate(-0 259.343174 95.300364)">ns</text>
   </g>
   <g id="text_15">
    <text style="font-weight: 700; font-size: 11px; font-family: 'DejaVu Sans'; text-anchor: middle" x="414.179326" y="103.726935" transform="rotate(-0 414.179326 103.726935)">***</text>
   </g>
   <g id="text_16">
    <text style="font-weight: 700; font-size: 11px; font-family: 'DejaVu Sans'; text-anchor: middle" x="569.015478" y="94.877608" transform="rotate(-0 569.015478 94.877608)">***</text>
   </g>
   <g id="text_17">
    <text style="font-weight: 700; font-size: 14px; font-family: 'DejaVu Sans'; text-anchor: middle" x="336.76125" y="17.837812" transform="rotate(-0 336.76125 17.837812)">Functional signature scores in R-loop-program groups</text>
   </g>
   <g id="legend_1">
    <g id="patch_9">
     <path d="M 650.42925 46.43625 
L 670.42925 46.43625 
L 670.42925 39.43625 
L 650.42925 39.43625 
z
" style="fill: #3274a1; stroke: #3f3f3f; stroke-linejoin: miter"/>
    </g>
    <g id="text_18">
     <text style="font-size: 10px; font-family: 'DejaVu Sans'; text-anchor: start" x="678.42925" y="46.43625" transform="rotate(-0 678.42925 46.43625)">R-loop-program-high</text>
    </g>
    <g id="patch_10">
     <path d="M 650.42925 61.114375 
L 670.42925 61.114375 
L 670.42925 54.114375 
L 650.42925 54.114375 
z
" style="fill: #e1812c; stroke: #3f3f3f; stroke-linejoin: miter"/>
    </g>
    <g id="text_19">
     <text style="font-size: 10px; font-family: 'DejaVu Sans'; text-anchor: start" x="678.42925" y="61.114375" transform="rotate(-0 678.42925 61.114375)">R-loop-program-low</text>
    </g>
   </g>
  </g>
 </g>
 <defs>
  <clipPath id="p42c666f1f5">
   <rect x="43.81125" y="29.837812" width="585.9" height="249.48"/>
  </clipPath>
 </defs>
</svg>
