<?xml version="1.0" encoding="utf-8" standalone="no"?>
<!DOCTYPE svg PUBLIC "-//W3C//DTD SVG 1.1//EN"
  "http://www.w3.org/Graphics/SVG/1.1/DTD/svg11.dtd">
<svg xmlns:xlink="http://www.w3.org/1999/xlink" width="761.931925pt" height="333.441687pt" viewBox="0 0 761.931925 333.441687" xmlns="http://www.w3.org/2000/svg" version="1.1">
 <metadata>
  <rdf:RDF xmlns:dc="http://purl.org/dc/elements/1.1/" xmlns:cc="http://creativecommons.org/ns#" xmlns:rdf="http://www.w3.org/1999/02/22-rdf-syntax-ns#">
   <cc:Work>
    <dc:type rdf:resource="http://purl.org/dc/dcmitype/StillImage"/>
    <dc:date>2026-06-04T07:28:14.745320</dc:date>
    <dc:format>image/svg+xml</dc:format>
    <dc:creator>
     <cc:Agent>
      <dc:title>Matplotlib v3.10.0, https://matplotlib.org/</dc:title>
     </cc:Agent>
    </dc:creator>
   </cc:Work>
  </rdf:RDF>
 </metadata>
 <defs>
  <style type="text/css">*{stroke-linejoin: round; stroke-linecap: butt}</style>
 </defs>
 <g id="figure_1">
  <g id="patch_1">
   <path d="M 0 333.441687 
L 761.931925 333.441687 
L 761.931925 0 
L 0 0 
L 0 333.441687 
z
" style="fill: none"/>
  </g>
  <g id="axes_1">
   <g id="patch_2">
    <path d="M 255.934375 293.949812 
L 635.374375 293.949812 
L 635.374375 27.837812 
L 255.934375 27.837812 
L 255.934375 293.949812 
z
" style="fill: none"/>
   </g>
   <g id="PathCollection_1">
    <path d="M 273.181648 43.947677 
C 274.246137 43.947677 275.267171 43.524751 276.019879 42.772044 
C 276.772586 42.019336 277.195513 40.998302 277.195513 39.933812 
C 277.195513 38.869323 276.772586 37.848289 276.019879 37.095581 
C 275.267171 36.342874 274.246137 35.919948 273.181648 35.919948 
C 272.117158 35.919948 271.096124 36.342874 270.343417 37.095581 
C 269.590709 37.848289 269.167783 38.869323 269.167783 39.933812 
C 269.167783 40.998302 269.590709 42.019336 270.343417 42.772044 
C 271.096124 43.524751 272.117158 43.947677 273.181648 43.947677 
z
" clip-path="url(#paaadf9f9c6)" style="fill: #2a778e; stroke: #000000; stroke-width: 0.3"/>
    <path d="M 274.300582 65.940405 
C 275.365072 65.940405 276.386106 65.517479 277.138813 64.764771 
C 277.891521 64.012063 278.314447 62.991029 278.314447 61.92654 
C 278.314447 60.86205 277.891521 59.841016 277.138813 59.088309 
C 276.386106 58.335601 275.365072 57.912675 274.300582 57.912675 
C 273.236093 57.912675 272.215059 58.335601 271.462351 59.088309 
C 270.709644 59.841016 270.286718 60.86205 270.286718 61.92654 
C 270.286718 62.991029 270.709644 64.012063 271.462351 64.764771 
C 272.215059 65.517479 273.236093 65.940405 274.300582 65.940405 
z
" clip-path="url(#paaadf9f9c6)" style="fill: #440154; stroke: #000000; stroke-width: 0.3"/>
    <path d="M 274.300582 87.933132 
C 275.365072 87.933132 276.386106 87.510206 277.138813 86.757498 
C 277.891521 86.00479 278.314447 84.983756 278.314447 83.919267 
C 278.314447 82.854778 277.891521 81.833744 277.138813 81.081036 
C 276.386106 80.328328 275.365072 79.905402 274.300582 79.905402 
C 273.236093 79.905402 272.215059 80.328328 271.462351 81.081036 
C 270.709644 81.833744 270.286718 82.854778 270.286718 83.919267 
C 270.286718 84.983756 270.709644 86.00479 271.462351 86.757498 
C 272.215059 87.510206 273.236093 87.933132 274.300582 87.933132 
z
" clip-path="url(#paaadf9f9c6)" style="fill: #440154; stroke: #000000; stroke-width: 0.3"/>
    <path d="M 314.69071 109.266096 
C 315.580228 109.266096 316.433434 108.912687 317.062418 108.283703 
C 317.691403 107.654718 318.044812 106.801513 318.044812 105.911994 
C 318.044812 105.022476 317.691403 104.16927 317.062418 103.540286 
C 316.433434 102.911302 315.580228 102.557892 314.69071 102.557892 
C 313.801192 102.557892 312.947986 102.911302 312.319002 103.540286 
C 311.690017 104.16927 311.336608 105.022476 311.336608 105.911994 
C 311.336608 106.801513 311.690017 107.654718 312.319002 108.283703 
C 312.947986 108.912687 313.801192 109.266096 314.69071 109.266096 
z
" clip-path="url(#paaadf9f9c6)" style="fill: #fde725; stroke: #000000; stroke-width: 0.3"/>
    <path d="M 314.69071 131.918586 
C 315.755199 131.918586 316.776233 131.49566 317.528941 130.742953 
C 318.281649 129.990245 318.704575 128.969211 318.704575 127.904722 
C 318.704575 126.840232 318.281649 125.819198 317.528941 125.066491 
C 316.776233 124.313783 315.755199 123.890857 314.69071 123.890857 
C 313.62622 123.890857 312.605187 124.313783 311.852479 125.066491 
C 311.099771 125.819198 310.676845 126.840232 310.676845 127.904722 
C 310.676845 128.969211 311.099771 129.990245 311.852479 130.742953 
C 312.605187 131.49566 313.62622 131.918586 314.69071 131.918586 
z
" clip-path="url(#paaadf9f9c6)" style="fill: #5ac864; stroke: #000000; stroke-width: 0.3"/>
    <path d="M 348.368204 154.980099 
C 349.716139 154.980099 351.009047 154.444559 351.962181 153.491425 
C 352.915314 152.538292 353.450855 151.245383 353.450855 149.897449 
C 353.450855 148.549514 352.915314 147.256606 351.962181 146.303472 
C 351.009047 145.350339 349.716139 144.814799 348.368204 144.814799 
C 347.02027 144.814799 345.727362 145.350339 344.774228 146.303472 
C 343.821094 147.256606 343.285554 148.549514 343.285554 149.897449 
C 343.285554 151.245383 343.821094 152.538292 344.774228 153.491425 
C 345.727362 154.444559 347.02027 154.980099 348.368204 154.980099 
z
" clip-path="url(#paaadf9f9c6)" style="fill: #2db27d; stroke: #000000; stroke-width: 0.3"/>
    <path d="M 352.563767 176.46972 
C 353.778276 176.46972 354.943206 175.98719 355.801993 175.128403 
C 356.660781 174.269615 357.143311 173.104685 357.143311 171.890176 
C 357.143311 170.675667 356.660781 169.510737 355.801993 168.65195 
C 354.943206 167.793162 353.778276 167.310632 352.563767 167.310632 
C 351.349257 167.310632 350.184328 167.793162 349.32554 168.65195 
C 348.466752 169.510737 347.984223 170.675667 347.984223 171.890176 
C 347.984223 173.104685 348.466752 174.269615 349.32554 175.128403 
C 350.184328 175.98719 351.349257 176.46972 352.563767 176.46972 
z
" clip-path="url(#paaadf9f9c6)" style="fill: #a0da39; stroke: #000000; stroke-width: 0.3"/>
    <path d="M 363.19053 199.845751 
C 364.771896 199.845751 366.288706 199.217468 367.4069 198.099274 
C 368.525095 196.981079 369.153378 195.464269 369.153378 193.882903 
C 369.153378 192.301538 368.525095 190.784728 367.4069 189.666533 
C 366.288706 188.548339 364.771896 187.920055 363.19053 187.920055 
C 361.609164 187.920055 360.092354 188.548339 358.97416 189.666533 
C 357.855966 190.784728 357.227682 192.301538 357.227682 193.882903 
C 357.227682 195.464269 357.855966 196.981079 358.97416 198.099274 
C 360.092354 199.217468 361.609164 199.845751 363.19053 199.845751 
z
" clip-path="url(#paaadf9f9c6)" style="fill: #1f958b; stroke: #000000; stroke-width: 0.3"/>
    <path d="M 366.633721 223.291829 
C 368.60052 223.291829 370.487028 222.510412 371.877765 221.119675 
C 373.268502 219.728938 374.049919 217.84243 374.049919 215.875631 
C 374.049919 213.908832 373.268502 212.022323 371.877765 210.631586 
C 370.487028 209.24085 368.60052 208.459432 366.633721 208.459432 
C 364.666922 208.459432 362.780413 209.24085 361.389676 210.631586 
C 359.99894 212.022323 359.217522 213.908832 359.217522 215.875631 
C 359.217522 217.84243 359.99894 219.728938 361.389676 221.119675 
C 362.780413 222.510412 364.666922 223.291829 366.633721 223.291829 
z
" clip-path="url(#paaadf9f9c6)" style="fill: #3f4788; stroke: #000000; stroke-width: 0.3"/>
    <path d="M 386.711425 245.284556 
C 388.678224 245.284556 390.564733 244.503139 391.955469 243.112402 
C 393.346206 241.721665 394.127624 239.835157 394.127624 237.868358 
C 394.127624 235.901559 393.346206 234.015051 391.955469 232.624314 
C 390.564733 231.233577 388.678224 230.452159 386.711425 230.452159 
C 384.744626 230.452159 382.858118 231.233577 381.467381 232.624314 
C 380.076644 234.015051 379.295227 235.901559 379.295227 237.868358 
C 379.295227 239.835157 380.076644 241.721665 381.467381 243.112402 
C 382.858118 244.503139 384.744626 245.284556 386.711425 245.284556 
z
" clip-path="url(#paaadf9f9c6)" style="fill: #31688e; stroke: #000000; stroke-width: 0.3"/>
    <path d="M 425.125395 265.823933 
C 426.706761 265.823933 428.223571 265.19565 429.341765 264.077455 
C 430.45996 262.959261 431.088243 261.442451 431.088243 259.861085 
C 431.088243 258.279719 430.45996 256.762909 429.341765 255.644715 
C 428.223571 254.526521 426.706761 253.898237 425.125395 253.898237 
C 423.544029 253.898237 422.027219 254.526521 420.909025 255.644715 
C 419.79083 256.762909 419.162547 258.279719 419.162547 259.861085 
C 419.162547 261.442451 419.79083 262.959261 420.909025 264.077455 
C 422.027219 265.19565 423.544029 265.823933 425.125395 265.823933 
z
" clip-path="url(#paaadf9f9c6)" style="fill: #277f8e; stroke: #000000; stroke-width: 0.3"/>
    <path d="M 618.127102 289.270011 
C 620.093901 289.270011 621.98041 288.488594 623.371147 287.097857 
C 624.761883 285.70712 625.543301 283.820611 625.543301 281.853812 
C 625.543301 279.887014 624.761883 278.000505 623.371147 276.609768 
C 621.98041 275.219031 620.093901 274.437614 618.127102 274.437614 
C 616.160303 274.437614 614.273795 275.219031 612.883058 276.609768 
C 611.492321 278.000505 610.710904 279.887014 610.710904 281.853812 
C 610.710904 283.820611 611.492321 285.70712 612.883058 287.097857 
C 614.273795 288.488594 616.160303 289.270011 618.127102 289.270011 
z
" clip-path="url(#paaadf9f9c6)" style="fill: #9dd93b; stroke: #000000; stroke-width: 0.3"/>
   </g>
   <g id="matplotlib.axis_1">
    <g id="xtick_1">
     <g id="line2d_1">
      <defs>
       <path id="m818d7b1c5f" d="M 0 0 
L 0 3.5 
" style="stroke: #000000; stroke-width: 0.8"/>
      </defs>
      <g>
       <use xlink:href="#m818d7b1c5f" x="268.549457" y="293.949812" style="stroke: #000000; stroke-width: 0.8"/>
      </g>
     </g>
     <g id="text_1">
      <text style="font-size: 10px; font-family: 'DejaVu Sans'; text-anchor: middle" x="268.549457" y="308.54825" transform="rotate(-0 268.549457 308.54825)">2</text>
     </g>
    </g>
    <g id="xtick_2">
     <g id="line2d_2">
      <g>
       <use xlink:href="#m818d7b1c5f" x="335.846477" y="293.949812" style="stroke: #000000; stroke-width: 0.8"/>
      </g>
     </g>
     <g id="text_2">
      <text style="font-size: 10px; font-family: 'DejaVu Sans'; text-anchor: middle" x="335.846477" y="308.54825" transform="rotate(-0 335.846477 308.54825)">3</text>
     </g>
    </g>
    <g id="xtick_3">
     <g id="line2d_3">
      <g>
       <use xlink:href="#m818d7b1c5f" x="403.143496" y="293.949812" style="stroke: #000000; stroke-width: 0.8"/>
      </g>
     </g>
     <g id="text_3">
      <text style="font-size: 10px; font-family: 'DejaVu Sans'; text-anchor: middle" x="403.143496" y="308.54825" transform="rotate(-0 403.143496 308.54825)">4</text>
     </g>
    </g>
    <g id="xtick_4">
     <g id="line2d_4">
      <g>
       <use xlink:href="#m818d7b1c5f" x="470.440516" y="293.949812" style="stroke: #000000; stroke-width: 0.8"/>
      </g>
     </g>
     <g id="text_4">
      <text style="font-size: 10px; font-family: 'DejaVu Sans'; text-anchor: middle" x="470.440516" y="308.54825" transform="rotate(-0 470.440516 308.54825)">5</text>
     </g>
    </g>
    <g id="xtick_5">
     <g id="line2d_5">
      <g>
       <use xlink:href="#m818d7b1c5f" x="537.737535" y="293.949812" style="stroke: #000000; stroke-width: 0.8"/>
      </g>
     </g>
     <g id="text_5">
      <text style="font-size: 10px; font-family: 'DejaVu Sans'; text-anchor: middle" x="537.737535" y="308.54825" transform="rotate(-0 537.737535 308.54825)">6</text>
     </g>
    </g>
    <g id="xtick_6">
     <g id="line2d_6">
      <g>
       <use xlink:href="#m818d7b1c5f" x="605.034554" y="293.949812" style="stroke: #000000; stroke-width: 0.8"/>
      </g>
     </g>
     <g id="text_6">
      <text style="font-size: 10px; font-family: 'DejaVu Sans'; text-anchor: middle" x="605.034554" y="308.54825" transform="rotate(-0 605.034554 308.54825)">7</text>
     </g>
    </g>
    <g id="text_7">
     <text style="font-size: 12px; font-family: 'DejaVu Sans'; text-anchor: middle" x="445.654375" y="323.746062" transform="rotate(-0 445.654375 323.746062)">-log10 adjusted P-value</text>
    </g>
   </g>
   <g id="matplotlib.axis_2">
    <g id="ytick_1">
     <g id="line2d_7">
      <defs>
       <path id="md4e205c19e" d="M 0 0 
L -3.5 0 
" style="stroke: #000000; stroke-width: 0.8"/>
      </defs>
      <g>
       <use xlink:href="#md4e205c19e" x="255.934375" y="39.933812" style="stroke: #000000; stroke-width: 0.8"/>
      </g>
     </g>
     <g id="text_8">
      <text style="font-size: 10px; font-family: 'DejaVu Sans'; text-anchor: end" x="248.934375" y="43.733031" transform="rotate(-0 248.934375 43.733031)">Regulation Of mRNA Stability</text>
     </g>
    </g>
    <g id="ytick_2">
     <g id="line2d_8">
      <g>
       <use xlink:href="#md4e205c19e" x="255.934375" y="61.92654" style="stroke: #000000; stroke-width: 0.8"/>
      </g>
     </g>
     <g id="text_9">
      <text style="font-size: 10px; font-family: 'DejaVu Sans'; text-anchor: end" x="248.934375" y="65.725759" transform="rotate(-0 248.934375 65.725759)">E2F targets</text>
     </g>
    </g>
    <g id="ytick_3">
     <g id="line2d_9">
      <g>
       <use xlink:href="#md4e205c19e" x="255.934375" y="83.919267" style="stroke: #000000; stroke-width: 0.8"/>
      </g>
     </g>
     <g id="text_10">
      <text style="font-size: 10px; font-family: 'DejaVu Sans'; text-anchor: end" x="248.934375" y="87.718486" transform="rotate(-0 248.934375 87.718486)">mTORC1 signaling</text>
     </g>
    </g>
    <g id="ytick_4">
     <g id="line2d_10">
      <g>
       <use xlink:href="#md4e205c19e" x="255.934375" y="105.911994" style="stroke: #000000; stroke-width: 0.8"/>
      </g>
     </g>
     <g id="text_11">
      <text style="font-size: 10px; font-family: 'DejaVu Sans'; text-anchor: end" x="248.934375" y="109.711213" transform="rotate(-0 248.934375 109.711213)">Cytoplasmic Translation</text>
     </g>
    </g>
    <g id="ytick_5">
     <g id="line2d_11">
      <g>
       <use xlink:href="#md4e205c19e" x="255.934375" y="127.904722" style="stroke: #000000; stroke-width: 0.8"/>
      </g>
     </g>
     <g id="text_12">
      <text style="font-size: 10px; font-family: 'DejaVu Sans'; text-anchor: end" x="248.934375" y="131.70394" transform="rotate(-0 248.934375 131.70394)">Regulation Of Cellular Response To Stress</text>
     </g>
    </g>
    <g id="ytick_6">
     <g id="line2d_12">
      <g>
       <use xlink:href="#md4e205c19e" x="255.934375" y="149.897449" style="stroke: #000000; stroke-width: 0.8"/>
      </g>
     </g>
     <g id="text_13">
      <text style="font-size: 10px; font-family: 'DejaVu Sans'; text-anchor: end" x="248.934375" y="153.696668" transform="rotate(-0 248.934375 153.696668)">Spliceosome</text>
     </g>
    </g>
    <g id="ytick_7">
     <g id="line2d_13">
      <g>
       <use xlink:href="#md4e205c19e" x="255.934375" y="171.890176" style="stroke: #000000; stroke-width: 0.8"/>
      </g>
     </g>
     <g id="text_14">
      <text style="font-size: 10px; font-family: 'DejaVu Sans'; text-anchor: end" x="248.934375" y="175.689395" transform="rotate(-0 248.934375 175.689395)">Regulation Of mRNA Catabolic Process</text>
     </g>
    </g>
    <g id="ytick_8">
     <g id="line2d_14">
      <g>
       <use xlink:href="#md4e205c19e" x="255.934375" y="193.882903" style="stroke: #000000; stroke-width: 0.8"/>
      </g>
     </g>
     <g id="text_15">
      <text style="font-size: 10px; font-family: 'DejaVu Sans'; text-anchor: end" x="248.934375" y="197.682122" transform="rotate(-0 248.934375 197.682122)">Regulation Of Mitotic Cell Cycle Phase Transition</text>
     </g>
    </g>
    <g id="ytick_9">
     <g id="line2d_15">
      <g>
       <use xlink:href="#md4e205c19e" x="255.934375" y="215.875631" style="stroke: #000000; stroke-width: 0.8"/>
      </g>
     </g>
     <g id="text_16">
      <text style="font-size: 10px; font-family: 'DejaVu Sans'; text-anchor: end" x="248.934375" y="219.674849" transform="rotate(-0 248.934375 219.674849)">mRNA Processing</text>
     </g>
    </g>
    <g id="ytick_10">
     <g id="line2d_16">
      <g>
       <use xlink:href="#md4e205c19e" x="255.934375" y="237.868358" style="stroke: #000000; stroke-width: 0.8"/>
      </g>
     </g>
     <g id="text_17">
      <text style="font-size: 10px; font-family: 'DejaVu Sans'; text-anchor: end" x="248.934375" y="241.667577" transform="rotate(-0 248.934375 241.667577)">mRNA Splicing, via Spliceosome</text>
     </g>
    </g>
    <g id="ytick_11">
     <g id="line2d_17">
      <g>
       <use xlink:href="#md4e205c19e" x="255.934375" y="259.861085" style="stroke: #000000; stroke-width: 0.8"/>
      </g>
     </g>
     <g id="text_18">
      <text style="font-size: 10px; font-family: 'DejaVu Sans'; text-anchor: end" x="248.934375" y="263.660304" transform="rotate(-0 248.934375 263.660304)">G2M checkpoint</text>
     </g>
    </g>
    <g id="ytick_12">
     <g id="line2d_18">
      <g>
       <use xlink:href="#md4e205c19e" x="255.934375" y="281.853812" style="stroke: #000000; stroke-width: 0.8"/>
      </g>
     </g>
     <g id="text_19">
      <text style="font-size: 10px; font-family: 'DejaVu Sans'; text-anchor: end" x="248.934375" y="285.653031" transform="rotate(-0 248.934375 285.653031)">MYC targets</text>
     </g>
    </g>
   </g>
   <g id="line2d_19"/>
   <g id="line2d_20"/>
   <g id="line2d_21"/>
   <g id="line2d_22"/>
   <g id="line2d_23"/>
   <g id="line2d_24"/>
   <g id="line2d_25"/>
   <g id="line2d_26"/>
   <g id="line2d_27"/>
   <g id="line2d_28"/>
   <g id="line2d_29"/>
   <g id="line2d_30"/>
   <g id="line2d_31"/>
   <g id="line2d_32"/>
   <g id="patch_3">
    <path d="M 255.934375 293.949812 
L 255.934375 27.837812 
" style="fill: none; stroke: #000000; stroke-width: 0.8; stroke-linejoin: miter; stroke-linecap: square"/>
   </g>
   <g id="patch_4">
    <path d="M 255.934375 293.949812 
L 635.374375 293.949812 
" style="fill: none; stroke: #000000; stroke-width: 0.8; stroke-linejoin: miter; stroke-linecap: square"/>
   </g>
   <g id="text_20">
    <text style="font-size: 9px; font-family: 'DejaVu Sans'; text-anchor: end" x="627.785575" y="284.094734" transform="rotate(-0 627.785575 284.094734)">Top 300 high-up genes</text>
   </g>
   <g id="text_21">
    <text style="font-weight: 700; font-size: 14px; font-family: 'DejaVu Sans'; text-anchor: middle" x="445.654375" y="17.837812" transform="rotate(-0 445.654375 17.837812)">Pathway enrichment of R-loop-program-high genes</text>
   </g>
   <g id="legend_1">
    <g id="line2d_33"/>
    <g id="text_22">
     <text style="font-size: 10px; font-family: 'DejaVu Sans'; text-anchor: start" x="679.963175" y="44.43625" transform="rotate(-0 679.963175 44.43625)">gene_ratio</text>
    </g>
    <g id="line2d_34">
     <defs>
      <path id="mf28e857a59" d="M 0 3 
C 0.795609 3 1.55874 2.683901 2.12132 2.12132 
C 2.683901 1.55874 3 0.795609 3 0 
C 3 -0.795609 2.683901 -1.55874 2.12132 -2.12132 
C 1.55874 -2.683901 0.795609 -3 0 -3 
C -0.795609 -3 -1.55874 -2.683901 -2.12132 -2.12132 
C -2.683901 -1.55874 -3 -0.795609 -3 0 
C -3 0.795609 -2.683901 1.55874 -2.12132 2.12132 
C -1.55874 2.683901 -0.795609 3 0 3 
z
" style="stroke: #000000; stroke-width: 0.3"/>
     </defs>
     <g>
      <use xlink:href="#mf28e857a59" x="661.963175" y="55.8925" style="fill: #472d7b; stroke: #000000; stroke-width: 0.3"/>
     </g>
    </g>
    <g id="text_23">
     <text style="font-size: 10px; font-family: 'DejaVu Sans'; text-anchor: start" x="679.963175" y="59.3925" transform="rotate(-0 679.963175 59.3925)">0.056</text>
    </g>
    <g id="line2d_35">
     <defs>
      <path id="m92ef541121" d="M 0 3 
C 0.795609 3 1.55874 2.683901 2.12132 2.12132 
C 2.683901 1.55874 3 0.795609 3 0 
C 3 -0.795609 2.683901 -1.55874 2.12132 -2.12132 
C 1.55874 -2.683901 0.795609 -3 0 -3 
C -0.795609 -3 -1.55874 -2.683901 -2.12132 -2.12132 
C -2.683901 -1.55874 -3 -0.795609 -3 0 
C -3 0.795609 -2.683901 1.55874 -2.12132 2.12132 
C -1.55874 2.683901 -0.795609 3 0 3 
z
" style="stroke: #000000; stroke-width: 0.3"/>
     </defs>
     <g>
      <use xlink:href="#m92ef541121" x="661.963175" y="70.570625" style="fill: #355f8d; stroke: #000000; stroke-width: 0.3"/>
     </g>
    </g>
    <g id="text_24">
     <text style="font-size: 10px; font-family: 'DejaVu Sans'; text-anchor: start" x="679.963175" y="74.070625" transform="rotate(-0 679.963175 74.070625)">0.064</text>
    </g>
    <g id="line2d_36">
     <defs>
      <path id="m8a9e4ba1dd" d="M 0 3 
C 0.795609 3 1.55874 2.683901 2.12132 2.12132 
C 2.683901 1.55874 3 0.795609 3 0 
C 3 -0.795609 2.683901 -1.55874 2.12132 -2.12132 
C 1.55874 -2.683901 0.795609 -3 0 -3 
C -0.795609 -3 -1.55874 -2.683901 -2.12132 -2.12132 
C -2.683901 -1.55874 -3 -0.795609 -3 0 
C -3 0.795609 -2.683901 1.55874 -2.12132 2.12132 
C -1.55874 2.683901 -0.795609 3 0 3 
z
" style="stroke: #000000; stroke-width: 0.3"/>
     </defs>
     <g>
      <use xlink:href="#m8a9e4ba1dd" x="661.963175" y="85.24875" style="fill: #23898e; stroke: #000000; stroke-width: 0.3"/>
     </g>
    </g>
    <g id="text_25">
     <text style="font-size: 10px; font-family: 'DejaVu Sans'; text-anchor: start" x="679.963175" y="88.74875" transform="rotate(-0 679.963175 88.74875)">0.072</text>
    </g>
    <g id="line2d_37">
     <defs>
      <path id="m3b056be765" d="M 0 3 
C 0.795609 3 1.55874 2.683901 2.12132 2.12132 
C 2.683901 1.55874 3 0.795609 3 0 
C 3 -0.795609 2.683901 -1.55874 2.12132 -2.12132 
C 1.55874 -2.683901 0.795609 -3 0 -3 
C -0.795609 -3 -1.55874 -2.683901 -2.12132 -2.12132 
C -2.683901 -1.55874 -3 -0.795609 -3 0 
C -3 0.795609 -2.683901 1.55874 -2.12132 2.12132 
C -1.55874 2.683901 -0.795609 3 0 3 
z
" style="stroke: #000000; stroke-width: 0.3"/>
     </defs>
     <g>
      <use xlink:href="#m3b056be765" x="661.963175" y="99.926875" style="fill: #2db27d; stroke: #000000; stroke-width: 0.3"/>
     </g>
    </g>
    <g id="text_26">
     <text style="font-size: 10px; font-family: 'DejaVu Sans'; text-anchor: start" x="679.963175" y="103.426875" transform="rotate(-0 679.963175 103.426875)">0.080</text>
    </g>
    <g id="line2d_38">
     <defs>
      <path id="m98b727828a" d="M 0 3 
C 0.795609 3 1.55874 2.683901 2.12132 2.12132 
C 2.683901 1.55874 3 0.795609 3 0 
C 3 -0.795609 2.683901 -1.55874 2.12132 -2.12132 
C 1.55874 -2.683901 0.795609 -3 0 -3 
C -0.795609 -3 -1.55874 -2.683901 -2.12132 -2.12132 
C -2.683901 -1.55874 -3 -0.795609 -3 0 
C -3 0.795609 -2.683901 1.55874 -2.12132 2.12132 
C -1.55874 2.683901 -0.795609 3 0 3 
z
" style="stroke: #000000; stroke-width: 0.3"/>
     </defs>
     <g>
      <use xlink:href="#m98b727828a" x="661.963175" y="114.605" style="fill: #81d34d; stroke: #000000; stroke-width: 0.3"/>
     </g>
    </g>
    <g id="text_27">
     <text style="font-size: 10px; font-family: 'DejaVu Sans'; text-anchor: start" x="679.963175" y="118.105" transform="rotate(-0 679.963175 118.105)">0.088</text>
    </g>
    <g id="line2d_39">
     <defs>
      <path id="mdf41a58b86" d="M 0 3 
C 0.795609 3 1.55874 2.683901 2.12132 2.12132 
C 2.683901 1.55874 3 0.795609 3 0 
C 3 -0.795609 2.683901 -1.55874 2.12132 -2.12132 
C 1.55874 -2.683901 0.795609 -3 0 -3 
C -0.795609 -3 -1.55874 -2.683901 -2.12132 -2.12132 
C -2.683901 -1.55874 -3 -0.795609 -3 0 
C -3 0.795609 -2.683901 1.55874 -2.12132 2.12132 
C -1.55874 2.683901 -0.795609 3 0 3 
z
" style="stroke: #000000; stroke-width: 0.3"/>
     </defs>
     <g>
      <use xlink:href="#mdf41a58b86" x="661.963175" y="129.283125" style="fill: #f4e61e; stroke: #000000; stroke-width: 0.3"/>
     </g>
    </g>
    <g id="text_28">
     <text style="font-size: 10px; font-family: 'DejaVu Sans'; text-anchor: start" x="679.963175" y="132.783125" transform="rotate(-0 679.963175 132.783125)">0.096</text>
    </g>
    <g id="line2d_40"/>
    <g id="text_29">
     <text style="font-size: 10px; font-family: 'DejaVu Sans'; text-anchor: start" x="679.963175" y="147.46125" transform="rotate(-0 679.963175 147.46125)">overlap_count</text>
    </g>
    <g id="line2d_41">
     <defs>
      <path id="mbfbb81e472" d="M 0 3.354102 
C 0.889518 3.354102 1.742724 3.000693 2.371708 2.371708 
C 3.000693 1.742724 3.354102 0.889518 3.354102 0 
C 3.354102 -0.889518 3.000693 -1.742724 2.371708 -2.371708 
C 1.742724 -3.000693 0.889518 -3.354102 0 -3.354102 
C -0.889518 -3.354102 -1.742724 -3.000693 -2.371708 -2.371708 
C -3.000693 -1.742724 -3.354102 -0.889518 -3.354102 0 
C -3.354102 0.889518 -3.000693 1.742724 -2.371708 2.371708 
C -1.742724 3.000693 -0.889518 3.354102 0 3.354102 
z
" style="stroke: #000000; stroke-width: 0.3"/>
     </defs>
     <g>
      <use xlink:href="#mbfbb81e472" x="661.963175" y="158.9175" style="fill: #333333; stroke: #000000; stroke-width: 0.3"/>
     </g>
    </g>
    <g id="text_30">
     <text style="font-size: 10px; font-family: 'DejaVu Sans'; text-anchor: start" x="679.963175" y="162.4175" transform="rotate(-0 679.963175 162.4175)">9</text>
    </g>
    <g id="line2d_42">
     <defs>
      <path id="me58432472e" d="M 0 4.013865 
C 1.064489 4.013865 2.085523 3.590939 2.838231 2.838231 
C 3.590939 2.085523 4.013865 1.064489 4.013865 0 
C 4.013865 -1.064489 3.590939 -2.085523 2.838231 -2.838231 
C 2.085523 -3.590939 1.064489 -4.013865 0 -4.013865 
C -1.064489 -4.013865 -2.085523 -3.590939 -2.838231 -2.838231 
C -3.590939 -2.085523 -4.013865 -1.064489 -4.013865 0 
C -4.013865 1.064489 -3.590939 2.085523 -2.838231 2.838231 
C -2.085523 3.590939 -1.064489 4.013865 0 4.013865 
z
" style="stroke: #000000; stroke-width: 0.3"/>
     </defs>
     <g>
      <use xlink:href="#me58432472e" x="661.963175" y="173.595625" style="fill: #333333; stroke: #000000; stroke-width: 0.3"/>
     </g>
    </g>
    <g id="text_31">
     <text style="font-size: 10px; font-family: 'DejaVu Sans'; text-anchor: start" x="679.963175" y="177.095625" transform="rotate(-0 679.963175 177.095625)">10</text>
    </g>
    <g id="line2d_43">
     <defs>
      <path id="m66f9fdf5ad" d="M 0 4.579544 
C 1.214509 4.579544 2.379439 4.097014 3.238227 3.238227 
C 4.097014 2.379439 4.579544 1.214509 4.579544 0 
C 4.579544 -1.214509 4.097014 -2.379439 3.238227 -3.238227 
C 2.379439 -4.097014 1.214509 -4.579544 0 -4.579544 
C -1.214509 -4.579544 -2.379439 -4.097014 -3.238227 -3.238227 
C -4.097014 -2.379439 -4.579544 -1.214509 -4.579544 0 
C -4.579544 1.214509 -4.097014 2.379439 -3.238227 3.238227 
C -2.379439 4.097014 -1.214509 4.579544 0 4.579544 
z
" style="stroke: #000000; stroke-width: 0.3"/>
     </defs>
     <g>
      <use xlink:href="#m66f9fdf5ad" x="661.963175" y="188.27375" style="fill: #333333; stroke: #000000; stroke-width: 0.3"/>
     </g>
    </g>
    <g id="text_32">
     <text style="font-size: 10px; font-family: 'DejaVu Sans'; text-anchor: start" x="679.963175" y="191.77375" transform="rotate(-0 679.963175 191.77375)">11</text>
    </g>
    <g id="line2d_44">
     <defs>
      <path id="m49374c09ed" d="M 0 5.08265 
C 1.347935 5.08265 2.640843 4.54711 3.593976 3.593976 
C 4.54711 2.640843 5.08265 1.347935 5.08265 0 
C 5.08265 -1.347935 4.54711 -2.640843 3.593976 -3.593976 
C 2.640843 -4.54711 1.347935 -5.08265 0 -5.08265 
C -1.347935 -5.08265 -2.640843 -4.54711 -3.593976 -3.593976 
C -4.54711 -2.640843 -5.08265 -1.347935 -5.08265 0 
C -5.08265 1.347935 -4.54711 2.640843 -3.593976 3.593976 
C -2.640843 4.54711 -1.347935 5.08265 0 5.08265 
z
" style="stroke: #000000; stroke-width: 0.3"/>
     </defs>
     <g>
      <use xlink:href="#m49374c09ed" x="661.963175" y="202.951875" style="fill: #333333; stroke: #000000; stroke-width: 0.3"/>
     </g>
    </g>
    <g id="text_33">
     <text style="font-size: 10px; font-family: 'DejaVu Sans'; text-anchor: start" x="679.963175" y="206.451875" transform="rotate(-0 679.963175 206.451875)">12</text>
    </g>
    <g id="line2d_45">
     <defs>
      <path id="mcec0624b9c" d="M 0 5.962848 
C 1.581366 5.962848 3.098176 5.334565 4.21637 4.21637 
C 5.334565 3.098176 5.962848 1.581366 5.962848 0 
C 5.962848 -1.581366 5.334565 -3.098176 4.21637 -4.21637 
C 3.098176 -5.334565 1.581366 -5.962848 0 -5.962848 
C -1.581366 -5.962848 -3.098176 -5.334565 -4.21637 -4.21637 
C -5.334565 -3.098176 -5.962848 -1.581366 -5.962848 0 
C -5.962848 1.581366 -5.334565 3.098176 -4.21637 4.21637 
C -3.098176 5.334565 -1.581366 5.962848 0 5.962848 
z
" style="stroke: #000000; stroke-width: 0.3"/>
     </defs>
     <g>
      <use xlink:href="#mcec0624b9c" x="661.963175" y="217.63" style="fill: #333333; stroke: #000000; stroke-width: 0.3"/>
     </g>
    </g>
    <g id="text_34">
     <text style="font-size: 10px; font-family: 'DejaVu Sans'; text-anchor: start" x="679.963175" y="221.13" transform="rotate(-0 679.963175 221.13)">14</text>
    </g>
    <g id="line2d_46">
     <defs>
      <path id="m93841870ba" d="M 0 7.416198 
C 1.966799 7.416198 3.853307 6.634781 5.244044 5.244044 
C 6.634781 3.853307 7.416198 1.966799 7.416198 0 
C 7.416198 -1.966799 6.634781 -3.853307 5.244044 -5.244044 
C 3.853307 -6.634781 1.966799 -7.416198 0 -7.416198 
C -1.966799 -7.416198 -3.853307 -6.634781 -5.244044 -5.244044 
C -6.634781 -3.853307 -7.416198 -1.966799 -7.416198 0 
C -7.416198 1.966799 -6.634781 3.853307 -5.244044 5.244044 
C -3.853307 6.634781 -1.966799 7.416198 0 7.416198 
z
" style="stroke: #000000; stroke-width: 0.3"/>
     </defs>
     <g>
      <use xlink:href="#m93841870ba" x="661.963175" y="232.308125" style="fill: #333333; stroke: #000000; stroke-width: 0.3"/>
     </g>
    </g>
    <g id="text_35">
     <text style="font-size: 10px; font-family: 'DejaVu Sans'; text-anchor: start" x="679.963175" y="235.808125" transform="rotate(-0 679.963175 235.808125)">18</text>
    </g>
   </g>
  </g>
 </g>
 <defs>
  <clipPath id="paaadf9f9c6">
   <rect x="255.934375" y="27.837812" width="379.44" height="266.112"/>
  </clipPath>
 </defs>
</svg>
