<?xml version="1.0" encoding="utf-8" standalone="no"?>
<!DOCTYPE svg PUBLIC "-//W3C//DTD SVG 1.1//EN"
  "http://www.w3.org/Graphics/SVG/1.1/DTD/svg11.dtd">
<svg xmlns:xlink="http://www.w3.org/1999/xlink" width="617.718706pt" height="361.941967pt" viewBox="0 0 617.718706 361.941967" xmlns="http://www.w3.org/2000/svg" version="1.1">
 <metadata>
  <rdf:RDF xmlns:dc="http://purl.org/dc/elements/1.1/" xmlns:cc="http://creativecommons.org/ns#" xmlns:rdf="http://www.w3.org/1999/02/22-rdf-syntax-ns#">
   <cc:Work>
    <dc:type rdf:resource="http://purl.org/dc/dcmitype/StillImage"/>
    <dc:date>2026-06-05T08:39:59.181054</dc:date>
    <dc:format>image/svg+xml</dc:format>
    <dc:creator>
     <cc:Agent>
      <dc:title>Matplotlib v3.10.0, https://matplotlib.org/</dc:title>
     </cc:Agent>
    </dc:creator>
   </cc:Work>
  </rdf:RDF>
 </metadata>
 <defs>
  <style type="text/css">*{stroke-linejoin: round; stroke-linecap: butt}</style>
 </defs>
 <g id="figure_1">
  <g id="patch_1">
   <path d="M 0 361.941967 
L 617.718706 361.941967 
L 617.718706 0 
L 0 0 
L 0 361.941967 
z
" style="fill: none"/>
  </g>
  <g id="axes_1">
   <g id="patch_2">
    <path d="M 35.844688 293.949812 
L 471.084688 293.949812 
L 471.084688 27.837812 
L 35.844688 27.837812 
L 35.844688 293.949812 
z
" style="fill: none"/>
   </g>
   <g id="FillBetweenPolyCollection_1">
    <defs>
     <path id="m7fda37fb9e" d="M 83.233398 -87.752168 
L 74.482935 -87.752168 
L 73.051978 -89.588435 
L 71.76908 -91.424703 
L 70.72174 -93.260971 
L 69.971304 -95.097239 
L 69.542333 -96.933507 
L 69.419308 -98.769775 
L 69.551753 -100.606043 
L 69.866504 -102.442311 
L 70.283817 -104.278579 
L 70.73304 -106.114847 
L 71.163868 -107.951115 
L 71.550791 -109.787383 
L 71.890527 -111.623651 
L 72.194254 -113.459919 
L 72.477761 -115.296186 
L 72.752758 -117.132454 
L 73.021738 -118.968722 
L 73.277289 -120.80499 
L 73.505251 -122.641258 
L 73.690017 -124.477526 
L 73.8199 -126.313794 
L 73.890867 -128.150062 
L 73.907707 -129.98633 
L 73.88269 -131.822598 
L 73.832527 -133.658866 
L 73.774767 -135.495134 
L 73.724735 -137.331402 
L 73.693695 -139.167669 
L 73.688414 -141.003937 
L 73.711858 -142.840205 
L 73.764483 -144.676473 
L 73.845594 -146.512741 
L 73.954345 -148.349009 
L 74.090227 -150.185277 
L 74.253082 -152.021545 
L 74.442791 -153.857813 
L 74.658866 -155.694081 
L 74.900091 -157.530349 
L 75.164315 -159.366617 
L 75.448418 -161.202885 
L 75.748435 -163.039153 
L 76.059799 -164.87542 
L 76.377657 -166.711688 
L 76.697245 -168.547956 
L 77.014275 -170.384224 
L 77.32531 -172.220492 
L 77.628055 -174.05676 
L 77.921532 -175.893028 
L 78.206034 -177.729296 
L 78.482867 -179.565564 
L 78.75386 -181.401832 
L 79.020734 -183.2381 
L 79.284484 -185.074368 
L 79.544912 -186.910636 
L 79.800484 -188.746903 
L 80.048574 -190.583171 
L 80.286053 -192.419439 
L 80.51009 -194.255707 
L 80.718924 -196.091975 
L 80.912394 -197.928243 
L 81.092031 -199.764511 
L 81.260702 -201.600779 
L 81.421871 -203.437047 
L 81.578706 -205.273315 
L 81.733255 -207.109583 
L 81.885925 -208.945851 
L 82.035367 -210.782119 
L 82.178766 -212.618387 
L 82.312435 -214.454654 
L 82.432563 -216.290922 
L 82.535922 -218.12719 
L 82.620441 -219.963458 
L 82.685538 -221.799726 
L 82.732213 -223.635994 
L 82.762904 -225.472262 
L 82.781151 -227.30853 
L 82.791133 -229.144798 
L 82.797123 -230.981066 
L 82.802964 -232.817334 
L 82.81161 -234.653602 
L 82.824835 -236.48987 
L 82.843135 -238.326137 
L 82.86586 -240.162405 
L 82.891523 -241.998673 
L 82.918232 -243.834941 
L 82.944147 -245.671209 
L 82.967845 -247.507477 
L 82.98854 -249.343745 
L 83.006115 -251.180013 
L 83.020995 -253.016281 
L 83.033914 -254.852549 
L 83.045672 -256.688817 
L 83.056944 -258.525085 
L 83.068181 -260.361353 
L 83.079612 -262.197621 
L 83.091307 -264.033888 
L 83.103256 -265.870156 
L 83.115428 -267.706424 
L 83.127788 -269.542692 
L 83.233398 -269.542692 
L 83.233398 -269.542692 
L 83.233398 -267.706424 
L 83.233398 -265.870156 
L 83.233398 -264.033888 
L 83.233398 -262.197621 
L 83.233398 -260.361353 
L 83.233398 -258.525085 
L 83.233398 -256.688817 
L 83.233398 -254.852549 
L 83.233398 -253.016281 
L 83.233398 -251.180013 
L 83.233398 -249.343745 
L 83.233398 -247.507477 
L 83.233398 -245.671209 
L 83.233398 -243.834941 
L 83.233398 -241.998673 
L 83.233398 -240.162405 
L 83.233398 -238.326137 
L 83.233398 -236.48987 
L 83.233398 -234.653602 
L 83.233398 -232.817334 
L 83.233398 -230.981066 
L 83.233398 -229.144798 
L 83.233398 -227.30853 
L 83.233398 -225.472262 
L 83.233398 -223.635994 
L 83.233398 -221.799726 
L 83.233398 -219.963458 
L 83.233398 -218.12719 
L 83.233398 -216.290922 
L 83.233398 -214.454654 
L 83.233398 -212.618387 
L 83.233398 -210.782119 
L 83.233398 -208.945851 
L 83.233398 -207.109583 
L 83.233398 -205.273315 
L 83.233398 -203.437047 
L 83.233398 -201.600779 
L 83.233398 -199.764511 
L 83.233398 -197.928243 
L 83.233398 -196.091975 
L 83.233398 -194.255707 
L 83.233398 -192.419439 
L 83.233398 -190.583171 
L 83.233398 -188.746903 
L 83.233398 -186.910636 
L 83.233398 -185.074368 
L 83.233398 -183.2381 
L 83.233398 -181.401832 
L 83.233398 -179.565564 
L 83.233398 -177.729296 
L 83.233398 -175.893028 
L 83.233398 -174.05676 
L 83.233398 -172.220492 
L 83.233398 -170.384224 
L 83.233398 -168.547956 
L 83.233398 -166.711688 
L 83.233398 -164.87542 
L 83.233398 -163.039153 
L 83.233398 -161.202885 
L 83.233398 -159.366617 
L 83.233398 -157.530349 
L 83.233398 -155.694081 
L 83.233398 -153.857813 
L 83.233398 -152.021545 
L 83.233398 -150.185277 
L 83.233398 -148.349009 
L 83.233398 -146.512741 
L 83.233398 -144.676473 
L 83.233398 -142.840205 
L 83.233398 -141.003937 
L 83.233398 -139.167669 
L 83.233398 -137.331402 
L 83.233398 -135.495134 
L 83.233398 -133.658866 
L 83.233398 -131.822598 
L 83.233398 -129.98633 
L 83.233398 -128.150062 
L 83.233398 -126.313794 
L 83.233398 -124.477526 
L 83.233398 -122.641258 
L 83.233398 -120.80499 
L 83.233398 -118.968722 
L 83.233398 -117.132454 
L 83.233398 -115.296186 
L 83.233398 -113.459919 
L 83.233398 -111.623651 
L 83.233398 -109.787383 
L 83.233398 -107.951115 
L 83.233398 -106.114847 
L 83.233398 -104.278579 
L 83.233398 -102.442311 
L 83.233398 -100.606043 
L 83.233398 -98.769775 
L 83.233398 -96.933507 
L 83.233398 -95.097239 
L 83.233398 -93.260971 
L 83.233398 -91.424703 
L 83.233398 -89.588435 
L 83.233398 -87.752168 
z
" style="stroke: #3f3f3f"/>
    </defs>
    <g clip-path="url(#p806f7eb439)">
     <use xlink:href="#m7fda37fb9e" x="0" y="361.941967" style="fill: #e1812c; stroke: #3f3f3f"/>
    </g>
   </g>
   <g id="FillBetweenPolyCollection_2">
    <defs>
     <path id="mb4854a9cd2" d="M 93.659803 -84.097044 
L 83.233398 -84.097044 
L 83.233398 -86.07255 
L 83.233398 -88.048056 
L 83.233398 -90.023562 
L 83.233398 -91.999069 
L 83.233398 -93.974575 
L 83.233398 -95.950081 
L 83.233398 -97.925587 
L 83.233398 -99.901093 
L 83.233398 -101.876599 
L 83.233398 -103.852106 
L 83.233398 -105.827612 
L 83.233398 -107.803118 
L 83.233398 -109.778624 
L 83.233398 -111.75413 
L 83.233398 -113.729636 
L 83.233398 -115.705142 
L 83.233398 -117.680649 
L 83.233398 -119.656155 
L 83.233398 -121.631661 
L 83.233398 -123.607167 
L 83.233398 -125.582673 
L 83.233398 -127.558179 
L 83.233398 -129.533686 
L 83.233398 -131.509192 
L 83.233398 -133.484698 
L 83.233398 -135.460204 
L 83.233398 -137.43571 
L 83.233398 -139.411216 
L 83.233398 -141.386723 
L 83.233398 -143.362229 
L 83.233398 -145.337735 
L 83.233398 -147.313241 
L 83.233398 -149.288747 
L 83.233398 -151.264253 
L 83.233398 -153.23976 
L 83.233398 -155.215266 
L 83.233398 -157.190772 
L 83.233398 -159.166278 
L 83.233398 -161.141784 
L 83.233398 -163.11729 
L 83.233398 -165.092797 
L 83.233398 -167.068303 
L 83.233398 -169.043809 
L 83.233398 -171.019315 
L 83.233398 -172.994821 
L 83.233398 -174.970327 
L 83.233398 -176.945834 
L 83.233398 -178.92134 
L 83.233398 -180.896846 
L 83.233398 -182.872352 
L 83.233398 -184.847858 
L 83.233398 -186.823364 
L 83.233398 -188.798871 
L 83.233398 -190.774377 
L 83.233398 -192.749883 
L 83.233398 -194.725389 
L 83.233398 -196.700895 
L 83.233398 -198.676401 
L 83.233398 -200.651907 
L 83.233398 -202.627414 
L 83.233398 -204.60292 
L 83.233398 -206.578426 
L 83.233398 -208.553932 
L 83.233398 -210.529438 
L 83.233398 -212.504944 
L 83.233398 -214.480451 
L 83.233398 -216.455957 
L 83.233398 -218.431463 
L 83.233398 -220.406969 
L 83.233398 -222.382475 
L 83.233398 -224.357981 
L 83.233398 -226.333488 
L 83.233398 -228.308994 
L 83.233398 -230.2845 
L 83.233398 -232.260006 
L 83.233398 -234.235512 
L 83.233398 -236.211018 
L 83.233398 -238.186525 
L 83.233398 -240.162031 
L 83.233398 -242.137537 
L 83.233398 -244.113043 
L 83.233398 -246.088549 
L 83.233398 -248.064055 
L 83.233398 -250.039562 
L 83.233398 -252.015068 
L 83.233398 -253.990574 
L 83.233398 -255.96608 
L 83.233398 -257.941586 
L 83.233398 -259.917092 
L 83.233398 -261.892599 
L 83.233398 -263.868105 
L 83.233398 -265.843611 
L 83.233398 -267.819117 
L 83.233398 -269.794623 
L 83.233398 -271.770129 
L 83.233398 -273.745636 
L 83.233398 -275.721142 
L 83.233398 -277.696648 
L 83.233398 -279.672154 
L 83.324706 -279.672154 
L 83.324706 -279.672154 
L 83.34447 -277.696648 
L 83.366622 -275.721142 
L 83.391598 -273.745636 
L 83.419874 -271.770129 
L 83.451847 -269.794623 
L 83.487717 -267.819117 
L 83.527402 -265.843611 
L 83.570492 -263.868105 
L 83.616228 -261.892599 
L 83.663521 -259.917092 
L 83.711017 -257.941586 
L 83.757254 -255.96608 
L 83.800883 -253.990574 
L 83.840922 -252.015068 
L 83.876909 -250.039562 
L 83.908884 -248.064055 
L 83.937167 -246.088549 
L 83.962031 -244.113043 
L 83.983458 -242.137537 
L 84.001148 -240.162031 
L 84.014815 -238.186525 
L 84.024669 -236.211018 
L 84.031818 -234.235512 
L 84.038377 -232.260006 
L 84.047155 -230.2845 
L 84.061027 -228.308994 
L 84.082263 -226.333488 
L 84.112106 -224.357981 
L 84.15079 -222.382475 
L 84.197935 -220.406969 
L 84.25308 -218.431463 
L 84.315995 -216.455957 
L 84.386546 -214.480451 
L 84.464115 -212.504944 
L 84.546871 -210.529438 
L 84.631339 -208.553932 
L 84.712672 -206.578426 
L 84.785721 -204.60292 
L 84.846675 -202.627414 
L 84.894673 -200.651907 
L 84.932737 -198.676401 
L 84.967545 -196.700895 
L 85.007987 -194.725389 
L 85.062922 -192.749883 
L 85.138869 -190.774377 
L 85.238403 -188.798871 
L 85.359738 -186.823364 
L 85.497512 -184.847858 
L 85.644365 -182.872352 
L 85.792649 -180.896846 
L 85.935686 -178.92134 
L 86.068257 -176.945834 
L 86.186398 -174.970327 
L 86.286831 -172.994821 
L 86.366496 -171.019315 
L 86.42253 -169.043809 
L 86.452833 -167.068303 
L 86.457054 -165.092797 
L 86.437601 -163.11729 
L 86.400201 -161.141784 
L 86.353647 -159.166278 
L 86.308669 -157.190772 
L 86.276205 -155.215266 
L 86.265563 -153.23976 
L 86.282998 -151.264253 
L 86.331019 -149.288747 
L 86.408495 -147.313241 
L 86.511441 -145.337735 
L 86.634303 -143.362229 
L 86.771657 -141.386723 
L 86.920225 -139.411216 
L 87.081026 -137.43571 
L 87.26126 -135.460204 
L 87.475326 -133.484698 
L 87.74433 -131.509192 
L 88.09378 -129.533686 
L 88.549746 -127.558179 
L 89.13469 -125.582673 
L 89.864949 -123.607167 
L 90.751994 -121.631661 
L 91.808657 -119.656155 
L 93.05899 -117.680649 
L 94.547092 -115.705142 
L 96.337504 -113.729636 
L 98.500001 -111.75413 
L 101.076273 -109.778624 
L 104.034891 -107.803118 
L 107.230385 -105.827612 
L 110.387215 -103.852106 
L 113.125067 -101.876599 
L 115.027929 -99.901093 
L 115.740802 -97.925587 
L 115.063506 -95.950081 
L 113.008697 -93.974575 
L 109.803229 -91.999069 
L 105.833031 -90.023562 
L 101.552009 -88.048056 
L 97.385975 -86.07255 
L 93.659803 -84.097044 
z
" style="stroke: #3f3f3f"/>
    </defs>
    <g clip-path="url(#p806f7eb439)">
     <use xlink:href="#mb4854a9cd2" x="0" y="361.941967" style="fill: #3274a1; stroke: #3f3f3f"/>
    </g>
   </g>
   <g id="FillBetweenPolyCollection_3">
    <defs>
     <path id="mbb5c8aaaa9" d="M 236.59492 -84.290967 
L 221.840926 -84.290967 
L 215.222171 -86.095201 
L 207.586717 -87.899435 
L 199.745806 -89.703669 
L 192.836075 -91.507904 
L 188.076807 -93.312138 
L 186.428861 -95.116372 
L 188.281086 -96.920606 
L 193.302801 -98.72484 
L 200.537484 -100.529075 
L 208.701754 -102.333309 
L 216.559478 -104.137543 
L 223.218672 -105.941777 
L 228.255934 -107.746011 
L 231.666401 -109.550245 
L 233.709312 -111.35448 
L 234.738333 -113.158714 
L 235.079144 -114.962948 
L 234.974028 -116.767182 
L 234.580524 -118.571416 
L 233.998059 -120.375651 
L 233.298708 -122.179885 
L 232.547689 -123.984119 
L 231.809797 -125.788353 
L 231.146023 -127.592587 
L 230.607818 -129.396821 
L 230.234296 -131.201056 
L 230.052606 -133.00529 
L 230.07795 -134.809524 
L 230.310433 -136.613758 
L 230.730117 -138.417992 
L 231.29515 -140.222227 
L 231.947166 -142.026461 
L 232.623487 -143.830695 
L 233.270944 -145.634929 
L 233.854984 -147.439163 
L 234.360856 -149.243397 
L 234.788266 -151.047632 
L 235.143723 -152.851866 
L 235.434553 -154.6561 
L 235.666323 -156.460334 
L 235.843068 -158.264568 
L 235.968784 -160.068803 
L 236.048846 -161.873037 
L 236.090746 -163.677271 
L 236.103997 -165.481505 
L 236.099246 -167.285739 
L 236.086853 -169.089973 
L 236.075448 -170.894208 
L 236.07104 -172.698442 
L 236.07687 -174.502676 
L 236.093698 -176.30691 
L 236.120051 -178.111144 
L 236.152215 -179.915379 
L 236.18426 -181.719613 
L 236.208586 -183.523847 
L 236.217298 -185.328081 
L 236.204301 -187.132315 
L 236.167576 -188.936549 
L 236.11085 -190.740784 
L 236.043821 -192.545018 
L 235.980388 -194.349252 
L 235.935085 -196.153486 
L 235.918831 -197.95772 
L 235.935649 -199.761955 
L 235.981733 -201.566189 
L 236.047113 -203.370423 
L 236.119052 -205.174657 
L 236.1857 -206.978891 
L 236.238803 -208.783126 
L 236.274968 -210.58736 
L 236.295633 -212.391594 
L 236.306078 -214.195828 
L 236.313736 -216.000062 
L 236.32599 -217.804296 
L 236.34791 -219.608531 
L 236.380675 -221.412765 
L 236.42145 -223.216999 
L 236.464798 -225.021233 
L 236.504944 -226.825467 
L 236.537754 -228.629702 
L 236.561619 -230.433936 
L 236.577159 -232.23817 
L 236.586255 -234.042404 
L 236.591053 -235.846638 
L 236.593332 -237.650872 
L 236.594288 -239.455107 
L 236.594578 -241.259341 
L 236.59445 -243.063575 
L 236.593837 -244.867809 
L 236.59238 -246.672043 
L 236.58941 -248.476278 
L 236.583994 -250.280512 
L 236.575143 -252.084746 
L 236.562245 -253.88898 
L 236.545645 -255.693214 
L 236.527094 -257.497448 
L 236.509706 -259.301683 
L 236.4972 -261.105917 
L 236.492636 -262.910151 
L 236.59492 -262.910151 
L 236.59492 -262.910151 
L 236.59492 -261.105917 
L 236.59492 -259.301683 
L 236.59492 -257.497448 
L 236.59492 -255.693214 
L 236.59492 -253.88898 
L 236.59492 -252.084746 
L 236.59492 -250.280512 
L 236.59492 -248.476278 
L 236.59492 -246.672043 
L 236.59492 -244.867809 
L 236.59492 -243.063575 
L 236.59492 -241.259341 
L 236.59492 -239.455107 
L 236.59492 -237.650872 
L 236.59492 -235.846638 
L 236.59492 -234.042404 
L 236.59492 -232.23817 
L 236.59492 -230.433936 
L 236.59492 -228.629702 
L 236.59492 -226.825467 
L 236.59492 -225.021233 
L 236.59492 -223.216999 
L 236.59492 -221.412765 
L 236.59492 -219.608531 
L 236.59492 -217.804296 
L 236.59492 -216.000062 
L 236.59492 -214.195828 
L 236.59492 -212.391594 
L 236.59492 -210.58736 
L 236.59492 -208.783126 
L 236.59492 -206.978891 
L 236.59492 -205.174657 
L 236.59492 -203.370423 
L 236.59492 -201.566189 
L 236.59492 -199.761955 
L 236.59492 -197.95772 
L 236.59492 -196.153486 
L 236.59492 -194.349252 
L 236.59492 -192.545018 
L 236.59492 -190.740784 
L 236.59492 -188.936549 
L 236.59492 -187.132315 
L 236.59492 -185.328081 
L 236.59492 -183.523847 
L 236.59492 -181.719613 
L 236.59492 -179.915379 
L 236.59492 -178.111144 
L 236.59492 -176.30691 
L 236.59492 -174.502676 
L 236.59492 -172.698442 
L 236.59492 -170.894208 
L 236.59492 -169.089973 
L 236.59492 -167.285739 
L 236.59492 -165.481505 
L 236.59492 -163.677271 
L 236.59492 -161.873037 
L 236.59492 -160.068803 
L 236.59492 -158.264568 
L 236.59492 -156.460334 
L 236.59492 -154.6561 
L 236.59492 -152.851866 
L 236.59492 -151.047632 
L 236.59492 -149.243397 
L 236.59492 -147.439163 
L 236.59492 -145.634929 
L 236.59492 -143.830695 
L 236.59492 -142.026461 
L 236.59492 -140.222227 
L 236.59492 -138.417992 
L 236.59492 -136.613758 
L 236.59492 -134.809524 
L 236.59492 -133.00529 
L 236.59492 -131.201056 
L 236.59492 -129.396821 
L 236.59492 -127.592587 
L 236.59492 -125.788353 
L 236.59492 -123.984119 
L 236.59492 -122.179885 
L 236.59492 -120.375651 
L 236.59492 -118.571416 
L 236.59492 -116.767182 
L 236.59492 -114.962948 
L 236.59492 -113.158714 
L 236.59492 -111.35448 
L 236.59492 -109.550245 
L 236.59492 -107.746011 
L 236.59492 -105.941777 
L 236.59492 -104.137543 
L 236.59492 -102.333309 
L 236.59492 -100.529075 
L 236.59492 -98.72484 
L 236.59492 -96.920606 
L 236.59492 -95.116372 
L 236.59492 -93.312138 
L 236.59492 -91.507904 
L 236.59492 -89.703669 
L 236.59492 -87.899435 
L 236.59492 -86.095201 
L 236.59492 -84.290967 
z
" style="stroke: #3f3f3f"/>
    </defs>
    <g clip-path="url(#p806f7eb439)">
     <use xlink:href="#mbb5c8aaaa9" x="0" y="361.941967" style="fill: #e1812c; stroke: #3f3f3f"/>
    </g>
   </g>
   <g id="FillBetweenPolyCollection_4">
    <defs>
     <path id="m34b1c849a3" d="M 239.016232 -78.072154 
L 236.59492 -78.072154 
L 236.59492 -79.974765 
L 236.59492 -81.877375 
L 236.59492 -83.779986 
L 236.59492 -85.682596 
L 236.59492 -87.585207 
L 236.59492 -89.487817 
L 236.59492 -91.390428 
L 236.59492 -93.293038 
L 236.59492 -95.195649 
L 236.59492 -97.098259 
L 236.59492 -99.00087 
L 236.59492 -100.90348 
L 236.59492 -102.806091 
L 236.59492 -104.708701 
L 236.59492 -106.611312 
L 236.59492 -108.513922 
L 236.59492 -110.416533 
L 236.59492 -112.319143 
L 236.59492 -114.221754 
L 236.59492 -116.124364 
L 236.59492 -118.026975 
L 236.59492 -119.929585 
L 236.59492 -121.832196 
L 236.59492 -123.734806 
L 236.59492 -125.637417 
L 236.59492 -127.540027 
L 236.59492 -129.442638 
L 236.59492 -131.345248 
L 236.59492 -133.247859 
L 236.59492 -135.15047 
L 236.59492 -137.05308 
L 236.59492 -138.955691 
L 236.59492 -140.858301 
L 236.59492 -142.760912 
L 236.59492 -144.663522 
L 236.59492 -146.566133 
L 236.59492 -148.468743 
L 236.59492 -150.371354 
L 236.59492 -152.273964 
L 236.59492 -154.176575 
L 236.59492 -156.079185 
L 236.59492 -157.981796 
L 236.59492 -159.884406 
L 236.59492 -161.787017 
L 236.59492 -163.689627 
L 236.59492 -165.592238 
L 236.59492 -167.494848 
L 236.59492 -169.397459 
L 236.59492 -171.300069 
L 236.59492 -173.20268 
L 236.59492 -175.10529 
L 236.59492 -177.007901 
L 236.59492 -178.910511 
L 236.59492 -180.813122 
L 236.59492 -182.715732 
L 236.59492 -184.618343 
L 236.59492 -186.520953 
L 236.59492 -188.423564 
L 236.59492 -190.326175 
L 236.59492 -192.228785 
L 236.59492 -194.131396 
L 236.59492 -196.034006 
L 236.59492 -197.936617 
L 236.59492 -199.839227 
L 236.59492 -201.741838 
L 236.59492 -203.644448 
L 236.59492 -205.547059 
L 236.59492 -207.449669 
L 236.59492 -209.35228 
L 236.59492 -211.25489 
L 236.59492 -213.157501 
L 236.59492 -215.060111 
L 236.59492 -216.962722 
L 236.59492 -218.865332 
L 236.59492 -220.767943 
L 236.59492 -222.670553 
L 236.59492 -224.573164 
L 236.59492 -226.475774 
L 236.59492 -228.378385 
L 236.59492 -230.280995 
L 236.59492 -232.183606 
L 236.59492 -234.086216 
L 236.59492 -235.988827 
L 236.59492 -237.891437 
L 236.59492 -239.794048 
L 236.59492 -241.696659 
L 236.59492 -243.599269 
L 236.59492 -245.50188 
L 236.59492 -247.40449 
L 236.59492 -249.307101 
L 236.59492 -251.209711 
L 236.59492 -253.112322 
L 236.59492 -255.014932 
L 236.59492 -256.917543 
L 236.59492 -258.820153 
L 236.59492 -260.722764 
L 236.59492 -262.625374 
L 236.59492 -264.527985 
L 236.59492 -266.430595 
L 236.647105 -266.430595 
L 236.647105 -266.430595 
L 236.643609 -264.527985 
L 236.634464 -262.625374 
L 236.622878 -260.722764 
L 236.612127 -258.820153 
L 236.604141 -256.917543 
L 236.599234 -255.014932 
L 236.596729 -253.112322 
L 236.595774 -251.209711 
L 236.595877 -249.307101 
L 236.597142 -247.40449 
L 236.60032 -245.50188 
L 236.606675 -243.599269 
L 236.617522 -241.696659 
L 236.633399 -239.794048 
L 236.653236 -237.891437 
L 236.674169 -235.988827 
L 236.692452 -234.086216 
L 236.705111 -232.183606 
L 236.711325 -230.280995 
L 236.71269 -228.378385 
L 236.712419 -226.475774 
L 236.714238 -224.573164 
L 236.721505 -222.670553 
L 236.736439 -220.767943 
L 236.759189 -218.865332 
L 236.787267 -216.962722 
L 236.816214 -215.060111 
L 236.84159 -213.157501 
L 236.860975 -211.25489 
L 236.874414 -209.35228 
L 236.883166 -207.449669 
L 236.888321 -205.547059 
L 236.890966 -203.644448 
L 236.893831 -201.741838 
L 236.902366 -199.839227 
L 236.923336 -197.936617 
L 236.961349 -196.034006 
L 237.016195 -194.131396 
L 237.083607 -192.228785 
L 237.158977 -190.326175 
L 237.240807 -188.423564 
L 237.331086 -186.520953 
L 237.432937 -184.618343 
L 237.548123 -182.715732 
L 237.676209 -180.813122 
L 237.81474 -178.910511 
L 237.958761 -177.007901 
L 238.099531 -175.10529 
L 238.224155 -173.20268 
L 238.31781 -171.300069 
L 238.368413 -169.397459 
L 238.371589 -167.494848 
L 238.33314 -165.592238 
L 238.267414 -163.689627 
L 238.192573 -161.787017 
L 238.126088 -159.884406 
L 238.083321 -157.981796 
L 238.078723 -156.079185 
L 238.126416 -154.176575 
L 238.238537 -152.273964 
L 238.424447 -150.371354 
L 238.69463 -148.468743 
L 239.066338 -146.566133 
L 239.561427 -144.663522 
L 240.191344 -142.760912 
L 240.937612 -140.858301 
L 241.74305 -138.955691 
L 242.520647 -137.05308 
L 243.174105 -135.15047 
L 243.620201 -133.247859 
L 243.807197 -131.345248 
L 243.725552 -129.442638 
L 243.406157 -127.540027 
L 242.905173 -125.637417 
L 242.284041 -123.734806 
L 241.597729 -121.832196 
L 240.896918 -119.929585 
L 240.239899 -118.026975 
L 239.711873 -116.124364 
L 239.461007 -114.221754 
L 239.760308 -112.319143 
L 241.073227 -110.416533 
L 244.048317 -108.513922 
L 249.343045 -106.611312 
L 257.243517 -104.708701 
L 267.219175 -102.806091 
L 277.72033 -100.90348 
L 286.498355 -99.00087 
L 291.421007 -97.098259 
L 291.365349 -95.195649 
L 286.650804 -93.293038 
L 278.771613 -91.390428 
L 269.657359 -89.487817 
L 260.939117 -87.585207 
L 253.574778 -85.682596 
L 247.873498 -83.779986 
L 243.732873 -81.877375 
L 240.880079 -79.974765 
L 239.016232 -78.072154 
z
" style="stroke: #3f3f3f"/>
    </defs>
    <g clip-path="url(#p806f7eb439)">
     <use xlink:href="#m34b1c849a3" x="0" y="361.941967" style="fill: #3274a1; stroke: #3f3f3f"/>
    </g>
   </g>
   <g id="FillBetweenPolyCollection_5">
    <defs>
     <path id="m5a56402131" d="M 389.956442 -85.068676 
L 370.041204 -85.068676 
L 361.426568 -86.548654 
L 351.774524 -88.028632 
L 342.245214 -89.50861 
L 334.321817 -90.988588 
L 329.45034 -92.468566 
L 328.611833 -93.948544 
L 331.998151 -95.428522 
L 338.937402 -96.9085 
L 348.107441 -98.388478 
L 357.943603 -99.868456 
L 367.066973 -101.348434 
L 374.573386 -102.828412 
L 380.111474 -104.30839 
L 383.780279 -105.788368 
L 385.937963 -107.268346 
L 387.015312 -108.748324 
L 387.390169 -110.228302 
L 387.334307 -111.70828 
L 387.015239 -113.188258 
L 386.526887 -114.668236 
L 385.927352 -116.148214 
L 385.269827 -117.628192 
L 384.619011 -119.10817 
L 384.050568 -120.588148 
L 383.636666 -122.068126 
L 383.426237 -123.548104 
L 383.431073 -125.028082 
L 383.62596 -126.50806 
L 383.963146 -127.988038 
L 384.393173 -129.468016 
L 384.880508 -130.947994 
L 385.406182 -132.427972 
L 385.958378 -133.90795 
L 386.519616 -135.387928 
L 387.060577 -136.867906 
L 387.544995 -138.347884 
L 387.941998 -139.827862 
L 388.237677 -141.30784 
L 388.439081 -142.787818 
L 388.569234 -144.267796 
L 388.656904 -145.747774 
L 388.72678 -147.227752 
L 388.794143 -148.70773 
L 388.864837 -150.187708 
L 388.938442 -151.667686 
L 389.011658 -153.147664 
L 389.080032 -154.627642 
L 389.138181 -156.10762 
L 389.179971 -157.587598 
L 389.199791 -159.067576 
L 389.194847 -160.547554 
L 389.167274 -162.027532 
L 389.124802 -163.50751 
L 389.079416 -164.987488 
L 389.044383 -166.467466 
L 389.030759 -167.947444 
L 389.04466 -169.427422 
L 389.086237 -170.9074 
L 389.150519 -172.387378 
L 389.22943 -173.867356 
L 389.313976 -175.347334 
L 389.395874 -176.827312 
L 389.468582 -178.30729 
L 389.528093 -179.787269 
L 389.573648 -181.267247 
L 389.608012 -182.747225 
L 389.63669 -184.227203 
L 389.665961 -185.707181 
L 389.700431 -187.187159 
L 389.741293 -188.667137 
L 389.786158 -190.147115 
L 389.830397 -191.627093 
L 389.869093 -193.107071 
L 389.898534 -194.587049 
L 389.916646 -196.067027 
L 389.922522 -197.547005 
L 389.915732 -199.026983 
L 389.896129 -200.506961 
L 389.864496 -201.986939 
L 389.823715 -203.466917 
L 389.779612 -204.946895 
L 389.74052 -206.426873 
L 389.715236 -207.906851 
L 389.710052 -209.386829 
L 389.726319 -210.866807 
L 389.759907 -212.346785 
L 389.802881 -213.826763 
L 389.846454 -215.306741 
L 389.883661 -216.786719 
L 389.910634 -218.266697 
L 389.926309 -219.746675 
L 389.931281 -221.226653 
L 389.926747 -222.706631 
L 389.914126 -224.186609 
L 389.895382 -225.666587 
L 389.873548 -227.146565 
L 389.852831 -228.626543 
L 389.837884 -230.106521 
L 389.83243 -231.586499 
L 389.956442 -231.586499 
L 389.956442 -231.586499 
L 389.956442 -230.106521 
L 389.956442 -228.626543 
L 389.956442 -227.146565 
L 389.956442 -225.666587 
L 389.956442 -224.186609 
L 389.956442 -222.706631 
L 389.956442 -221.226653 
L 389.956442 -219.746675 
L 389.956442 -218.266697 
L 389.956442 -216.786719 
L 389.956442 -215.306741 
L 389.956442 -213.826763 
L 389.956442 -212.346785 
L 389.956442 -210.866807 
L 389.956442 -209.386829 
L 389.956442 -207.906851 
L 389.956442 -206.426873 
L 389.956442 -204.946895 
L 389.956442 -203.466917 
L 389.956442 -201.986939 
L 389.956442 -200.506961 
L 389.956442 -199.026983 
L 389.956442 -197.547005 
L 389.956442 -196.067027 
L 389.956442 -194.587049 
L 389.956442 -193.107071 
L 389.956442 -191.627093 
L 389.956442 -190.147115 
L 389.956442 -188.667137 
L 389.956442 -187.187159 
L 389.956442 -185.707181 
L 389.956442 -184.227203 
L 389.956442 -182.747225 
L 389.956442 -181.267247 
L 389.956442 -179.787269 
L 389.956442 -178.30729 
L 389.956442 -176.827312 
L 389.956442 -175.347334 
L 389.956442 -173.867356 
L 389.956442 -172.387378 
L 389.956442 -170.9074 
L 389.956442 -169.427422 
L 389.956442 -167.947444 
L 389.956442 -166.467466 
L 389.956442 -164.987488 
L 389.956442 -163.50751 
L 389.956442 -162.027532 
L 389.956442 -160.547554 
L 389.956442 -159.067576 
L 389.956442 -157.587598 
L 389.956442 -156.10762 
L 389.956442 -154.627642 
L 389.956442 -153.147664 
L 389.956442 -151.667686 
L 389.956442 -150.187708 
L 389.956442 -148.70773 
L 389.956442 -147.227752 
L 389.956442 -145.747774 
L 389.956442 -144.267796 
L 389.956442 -142.787818 
L 389.956442 -141.30784 
L 389.956442 -139.827862 
L 389.956442 -138.347884 
L 389.956442 -136.867906 
L 389.956442 -135.387928 
L 389.956442 -133.90795 
L 389.956442 -132.427972 
L 389.956442 -130.947994 
L 389.956442 -129.468016 
L 389.956442 -127.988038 
L 389.956442 -126.50806 
L 389.956442 -125.028082 
L 389.956442 -123.548104 
L 389.956442 -122.068126 
L 389.956442 -120.588148 
L 389.956442 -119.10817 
L 389.956442 -117.628192 
L 389.956442 -116.148214 
L 389.956442 -114.668236 
L 389.956442 -113.188258 
L 389.956442 -111.70828 
L 389.956442 -110.228302 
L 389.956442 -108.748324 
L 389.956442 -107.268346 
L 389.956442 -105.788368 
L 389.956442 -104.30839 
L 389.956442 -102.828412 
L 389.956442 -101.348434 
L 389.956442 -99.868456 
L 389.956442 -98.388478 
L 389.956442 -96.9085 
L 389.956442 -95.428522 
L 389.956442 -93.948544 
L 389.956442 -92.468566 
L 389.956442 -90.988588 
L 389.956442 -89.50861 
L 389.956442 -88.028632 
L 389.956442 -86.548654 
L 389.956442 -85.068676 
z
" style="stroke: #3f3f3f"/>
    </defs>
    <g clip-path="url(#p806f7eb439)">
     <use xlink:href="#m5a56402131" x="0" y="361.941967" style="fill: #e1812c; stroke: #3f3f3f"/>
    </g>
   </g>
   <g id="FillBetweenPolyCollection_6">
    <defs>
     <path id="ma9e13be545" d="M 393.814934 -79.860248 
L 389.956442 -79.860248 
L 389.956442 -81.793856 
L 389.956442 -83.727464 
L 389.956442 -85.661073 
L 389.956442 -87.594681 
L 389.956442 -89.528289 
L 389.956442 -91.461897 
L 389.956442 -93.395505 
L 389.956442 -95.329114 
L 389.956442 -97.262722 
L 389.956442 -99.19633 
L 389.956442 -101.129938 
L 389.956442 -103.063546 
L 389.956442 -104.997154 
L 389.956442 -106.930763 
L 389.956442 -108.864371 
L 389.956442 -110.797979 
L 389.956442 -112.731587 
L 389.956442 -114.665195 
L 389.956442 -116.598804 
L 389.956442 -118.532412 
L 389.956442 -120.46602 
L 389.956442 -122.399628 
L 389.956442 -124.333236 
L 389.956442 -126.266845 
L 389.956442 -128.200453 
L 389.956442 -130.134061 
L 389.956442 -132.067669 
L 389.956442 -134.001277 
L 389.956442 -135.934885 
L 389.956442 -137.868494 
L 389.956442 -139.802102 
L 389.956442 -141.73571 
L 389.956442 -143.669318 
L 389.956442 -145.602926 
L 389.956442 -147.536535 
L 389.956442 -149.470143 
L 389.956442 -151.403751 
L 389.956442 -153.337359 
L 389.956442 -155.270967 
L 389.956442 -157.204576 
L 389.956442 -159.138184 
L 389.956442 -161.071792 
L 389.956442 -163.0054 
L 389.956442 -164.939008 
L 389.956442 -166.872617 
L 389.956442 -168.806225 
L 389.956442 -170.739833 
L 389.956442 -172.673441 
L 389.956442 -174.607049 
L 389.956442 -176.540657 
L 389.956442 -178.474266 
L 389.956442 -180.407874 
L 389.956442 -182.341482 
L 389.956442 -184.27509 
L 389.956442 -186.208698 
L 389.956442 -188.142307 
L 389.956442 -190.075915 
L 389.956442 -192.009523 
L 389.956442 -193.943131 
L 389.956442 -195.876739 
L 389.956442 -197.810348 
L 389.956442 -199.743956 
L 389.956442 -201.677564 
L 389.956442 -203.611172 
L 389.956442 -205.54478 
L 389.956442 -207.478388 
L 389.956442 -209.411997 
L 389.956442 -211.345605 
L 389.956442 -213.279213 
L 389.956442 -215.212821 
L 389.956442 -217.146429 
L 389.956442 -219.080038 
L 389.956442 -221.013646 
L 389.956442 -222.947254 
L 389.956442 -224.880862 
L 389.956442 -226.81447 
L 389.956442 -228.748079 
L 389.956442 -230.681687 
L 389.956442 -232.615295 
L 389.956442 -234.548903 
L 389.956442 -236.482511 
L 389.956442 -238.416119 
L 389.956442 -240.349728 
L 389.956442 -242.283336 
L 389.956442 -244.216944 
L 389.956442 -246.150552 
L 389.956442 -248.08416 
L 389.956442 -250.017769 
L 389.956442 -251.951377 
L 389.956442 -253.884985 
L 389.956442 -255.818593 
L 389.956442 -257.752201 
L 389.956442 -259.68581 
L 389.956442 -261.619418 
L 389.956442 -263.553026 
L 389.956442 -265.486634 
L 389.956442 -267.420242 
L 389.956442 -269.353851 
L 389.956442 -271.287459 
L 390.01279 -271.287459 
L 390.01279 -271.287459 
L 390.008333 -269.353851 
L 389.997068 -267.420242 
L 389.984014 -265.486634 
L 389.97423 -263.553026 
L 389.971009 -261.619418 
L 389.975772 -259.68581 
L 389.988441 -257.752201 
L 390.007235 -255.818593 
L 390.028422 -253.884985 
L 390.047229 -251.951377 
L 390.060063 -250.017769 
L 390.066622 -248.08416 
L 390.070196 -246.150552 
L 390.075352 -244.216944 
L 390.08418 -242.283336 
L 390.094143 -240.349728 
L 390.099972 -238.416119 
L 390.098361 -236.482511 
L 390.091264 -234.548903 
L 390.085505 -232.615295 
L 390.089969 -230.681687 
L 390.111916 -228.748079 
L 390.15241 -226.81447 
L 390.202487 -224.880862 
L 390.244568 -222.947254 
L 390.261018 -221.013646 
L 390.244658 -219.080038 
L 390.203157 -217.146429 
L 390.154504 -215.212821 
L 390.117819 -213.279213 
L 390.105611 -211.345605 
L 390.120978 -209.411997 
L 390.159645 -207.478388 
L 390.213907 -205.54478 
L 390.274796 -203.611172 
L 390.33204 -201.677564 
L 390.375286 -199.743956 
L 390.398507 -197.810348 
L 390.403874 -195.876739 
L 390.400408 -193.943131 
L 390.398243 -192.009523 
L 390.403743 -190.075915 
L 390.418612 -188.142307 
L 390.441487 -186.208698 
L 390.468838 -184.27509 
L 390.49437 -182.341482 
L 390.509499 -180.407874 
L 390.507544 -178.474266 
L 390.48988 -176.540657 
L 390.468567 -174.607049 
L 390.462265 -172.673441 
L 390.487853 -170.739833 
L 390.55232 -168.806225 
L 390.648273 -166.872617 
L 390.755601 -164.939008 
L 390.850532 -163.0054 
L 390.918225 -161.071792 
L 390.960126 -159.138184 
L 390.989907 -157.204576 
L 391.021734 -155.270967 
L 391.061893 -153.337359 
L 391.110799 -151.403751 
L 391.170948 -149.470143 
L 391.250329 -147.536535 
L 391.357035 -145.602926 
L 391.491553 -143.669318 
L 391.647443 -141.73571 
L 391.826357 -139.802102 
L 392.06237 -137.868494 
L 392.436581 -135.934885 
L 393.05629 -134.001277 
L 393.990002 -132.067669 
L 395.188828 -130.134061 
L 396.454447 -128.200453 
L 397.495658 -126.266845 
L 398.052448 -124.333236 
L 398.011003 -122.399628 
L 397.438166 -120.46602 
L 396.525378 -118.532412 
L 395.495352 -116.598804 
L 394.542682 -114.665195 
L 393.852541 -112.731587 
L 393.699871 -110.797979 
L 394.589152 -108.864371 
L 397.331598 -106.930763 
L 402.883988 -104.997154 
L 411.817177 -103.063546 
L 423.576586 -101.129938 
L 436.086925 -99.19633 
L 446.256823 -97.262722 
L 451.301051 -95.329114 
L 450.034709 -93.395505 
L 443.251532 -91.461897 
L 433.071839 -89.528289 
L 421.896164 -87.594681 
L 411.631703 -85.661073 
L 403.391948 -83.727464 
L 397.526571 -81.793856 
L 393.814934 -79.860248 
z
" style="stroke: #3f3f3f"/>
    </defs>
    <g clip-path="url(#p806f7eb439)">
     <use xlink:href="#ma9e13be545" x="0" y="361.941967" style="fill: #3274a1; stroke: #3f3f3f"/>
    </g>
   </g>
   <g id="patch_3">
    <path d="M 83.233398 256.776601 
L 83.233398 256.776601 
L 83.233398 256.776601 
L 83.233398 256.776601 
z
" clip-path="url(#p806f7eb439)" style="fill: #e1812c; stroke: #3f3f3f; stroke-linejoin: miter"/>
   </g>
   <g id="patch_4">
    <path d="M 83.233398 256.776601 
L 83.233398 256.776601 
L 83.233398 256.776601 
L 83.233398 256.776601 
z
" clip-path="url(#p806f7eb439)" style="fill: #3274a1; stroke: #3f3f3f; stroke-linejoin: miter"/>
   </g>
   <g id="matplotlib.axis_1">
    <g id="xtick_1">
     <g id="line2d_1">
      <defs>
       <path id="m35e5252d31" d="M 0 0 
L 0 3.5 
" style="stroke: #000000; stroke-width: 0.8"/>
      </defs>
      <g>
       <use xlink:href="#m35e5252d31" x="83.233398" y="293.949812" style="stroke: #000000; stroke-width: 0.8"/>
      </g>
     </g>
     <g id="text_1">
      <text style="font-size: 11px; font-family: 'DejaVu Sans'; text-anchor: end" x="89.143595" y="306.86001" transform="rotate(-45 89.143595 306.86001)">Cytotoxicity</text>
     </g>
    </g>
    <g id="xtick_2">
     <g id="line2d_2">
      <g>
       <use xlink:href="#m35e5252d31" x="236.59492" y="293.949812" style="stroke: #000000; stroke-width: 0.8"/>
      </g>
     </g>
     <g id="text_2">
      <text style="font-size: 11px; font-family: 'DejaVu Sans'; text-anchor: end" x="242.505117" y="306.86001" transform="rotate(-45 242.505117 306.86001)">Exhaustion</text>
     </g>
    </g>
    <g id="xtick_3">
     <g id="line2d_3">
      <g>
       <use xlink:href="#m35e5252d31" x="389.956442" y="293.949812" style="stroke: #000000; stroke-width: 0.8"/>
      </g>
     </g>
     <g id="text_3">
      <text style="font-size: 11px; font-family: 'DejaVu Sans'; text-anchor: end" x="395.86664" y="306.86001" transform="rotate(-45 395.86664 306.86001)">Treg</text>
     </g>
    </g>
   </g>
   <g id="matplotlib.axis_2">
    <g id="ytick_1">
     <g id="line2d_4">
      <defs>
       <path id="m56c4289333" d="M 0 0 
L -3.5 0 
" style="stroke: #000000; stroke-width: 0.8"/>
      </defs>
      <g>
       <use xlink:href="#m56c4289333" x="35.844688" y="256.776601" style="stroke: #000000; stroke-width: 0.8"/>
      </g>
     </g>
     <g id="text_4">
      <text style="font-size: 11px; font-family: 'DejaVu Sans'; text-anchor: end" x="28.844688" y="260.955742" transform="rotate(-0 28.844688 260.955742)">0</text>
     </g>
    </g>
    <g id="ytick_2">
     <g id="line2d_5">
      <g>
       <use xlink:href="#m56c4289333" x="35.844688" y="207.176984" style="stroke: #000000; stroke-width: 0.8"/>
      </g>
     </g>
     <g id="text_5">
      <text style="font-size: 11px; font-family: 'DejaVu Sans'; text-anchor: end" x="28.844688" y="211.356124" transform="rotate(-0 28.844688 211.356124)">1</text>
     </g>
    </g>
    <g id="ytick_3">
     <g id="line2d_6">
      <g>
       <use xlink:href="#m56c4289333" x="35.844688" y="157.577366" style="stroke: #000000; stroke-width: 0.8"/>
      </g>
     </g>
     <g id="text_6">
      <text style="font-size: 11px; font-family: 'DejaVu Sans'; text-anchor: end" x="28.844688" y="161.756506" transform="rotate(-0 28.844688 161.756506)">2</text>
     </g>
    </g>
    <g id="ytick_4">
     <g id="line2d_7">
      <g>
       <use xlink:href="#m56c4289333" x="35.844688" y="107.977748" style="stroke: #000000; stroke-width: 0.8"/>
      </g>
     </g>
     <g id="text_7">
      <text style="font-size: 11px; font-family: 'DejaVu Sans'; text-anchor: end" x="28.844688" y="112.156889" transform="rotate(-0 28.844688 112.156889)">3</text>
     </g>
    </g>
    <g id="ytick_5">
     <g id="line2d_8">
      <g>
       <use xlink:href="#m56c4289333" x="35.844688" y="58.37813" style="stroke: #000000; stroke-width: 0.8"/>
      </g>
     </g>
     <g id="text_8">
      <text style="font-size: 11px; font-family: 'DejaVu Sans'; text-anchor: end" x="28.844688" y="62.557271" transform="rotate(-0 28.844688 62.557271)">4</text>
     </g>
    </g>
    <g id="text_9">
     <text style="font-size: 11px; font-family: 'DejaVu Sans'; text-anchor: middle" x="15.558281" y="160.893812" transform="rotate(-90 15.558281 160.893812)">Signature score</text>
    </g>
   </g>
   <g id="line2d_9">
    <defs>
     <path id="mbceb24f4d3" d="M 0 1.75 
C 0.464105 1.75 0.909265 1.565609 1.237437 1.237437 
C 1.565609 0.909265 1.75 0.464105 1.75 0 
C 1.75 -0.464105 1.565609 -0.909265 1.237437 -1.237437 
C 0.909265 -1.565609 0.464105 -1.75 0 -1.75 
C -0.464105 -1.75 -0.909265 -1.565609 -1.237437 -1.237437 
C -1.565609 -0.909265 -1.75 -0.464105 -1.75 0 
C -1.75 0.464105 -1.565609 0.909265 -1.237437 1.237437 
C -0.909265 1.565609 -0.464105 1.75 0 1.75 
z
" style="stroke: #ff7f0e; stroke-width: 2.025"/>
    </defs>
    <g clip-path="url(#p806f7eb439)">
     <use xlink:href="#mbceb24f4d3" x="64.063208" y="232.550814" style="fill: #ff7f0e; stroke: #ff7f0e; stroke-width: 2.025"/>
     <use xlink:href="#mbceb24f4d3" x="217.42473" y="265.838494" style="fill: #ff7f0e; stroke: #ff7f0e; stroke-width: 2.025"/>
     <use xlink:href="#mbceb24f4d3" x="370.786252" y="267.667011" style="fill: #ff7f0e; stroke: #ff7f0e; stroke-width: 2.025"/>
    </g>
   </g>
   <g id="line2d_10">
    <defs>
     <path id="mc1921c76ec" d="M 0 1.75 
C 0.464105 1.75 0.909265 1.565609 1.237437 1.237437 
C 1.565609 0.909265 1.75 0.464105 1.75 0 
C 1.75 -0.464105 1.565609 -0.909265 1.237437 -1.237437 
C 0.909265 -1.565609 0.464105 -1.75 0 -1.75 
C -0.464105 -1.75 -0.909265 -1.565609 -1.237437 -1.237437 
C -1.565609 -0.909265 -1.75 -0.464105 -1.75 0 
C -1.75 0.464105 -1.565609 0.909265 -1.237437 1.237437 
C -0.909265 1.565609 -0.464105 1.75 0 1.75 
z
" style="stroke: #1f77b4; stroke-width: 2.025"/>
    </defs>
    <g clip-path="url(#p806f7eb439)">
     <use xlink:href="#mc1921c76ec" x="102.403588" y="262.597552" style="fill: #1f77b4; stroke: #1f77b4; stroke-width: 2.025"/>
     <use xlink:href="#mc1921c76ec" x="255.76511" y="264.499055" style="fill: #1f77b4; stroke: #1f77b4; stroke-width: 2.025"/>
     <use xlink:href="#mc1921c76ec" x="409.126633" y="265.991391" style="fill: #1f77b4; stroke: #1f77b4; stroke-width: 2.025"/>
    </g>
   </g>
   <g id="line2d_11"/>
   <g id="line2d_12"/>
   <g id="line2d_13">
    <path d="M 55.628324 66.746612 
L 55.628324 60.093812 
L 110.838472 60.093812 
L 110.838472 66.746612 
" clip-path="url(#p806f7eb439)" style="fill: none; stroke: #000000; stroke-linecap: square"/>
   </g>
   <g id="line2d_14">
    <path d="M 208.989846 79.988171 
L 208.989846 73.335371 
L 264.199994 73.335371 
L 264.199994 79.988171 
" clip-path="url(#p806f7eb439)" style="fill: none; stroke: #000000; stroke-linecap: square"/>
   </g>
   <g id="line2d_15">
    <path d="M 362.351368 75.131308 
L 362.351368 68.478508 
L 417.561516 68.478508 
L 417.561516 75.131308 
" clip-path="url(#p806f7eb439)" style="fill: none; stroke: #000000; stroke-linecap: square"/>
   </g>
   <g id="patch_5">
    <path d="M 35.844688 293.949812 
L 35.844688 27.837812 
" style="fill: none; stroke: #000000; stroke-width: 0.8; stroke-linejoin: miter; stroke-linecap: square"/>
   </g>
   <g id="patch_6">
    <path d="M 35.844688 293.949812 
L 471.084688 293.949812 
" style="fill: none; stroke: #000000; stroke-width: 0.8; stroke-linejoin: miter; stroke-linecap: square"/>
   </g>
   <g id="text_10">
    <text style="font-weight: 700; font-size: 11px; font-family: 'DejaVu Sans'; text-anchor: middle" x="83.233398" y="55.588556" transform="rotate(-0 83.233398 55.588556)">***</text>
   </g>
   <g id="text_11">
    <text style="font-weight: 700; font-size: 11px; font-family: 'DejaVu Sans'; text-anchor: middle" x="236.59492" y="68.830115" transform="rotate(-0 236.59492 68.830115)">***</text>
   </g>
   <g id="text_12">
    <text style="font-weight: 700; font-size: 11px; font-family: 'DejaVu Sans'; text-anchor: middle" x="389.956442" y="63.973252" transform="rotate(-0 389.956442 63.973252)">***</text>
   </g>
   <g id="text_13">
    <text style="font-weight: 700; font-size: 14px; font-family: 'DejaVu Sans'; text-anchor: middle" x="253.464688" y="17.837812" transform="rotate(-0 253.464688 17.837812)">T cell functional states associated with R-loop program</text>
   </g>
   <g id="legend_1">
    <g id="patch_7">
     <path d="M 487.889488 42.776406 
L 505.889488 42.776406 
L 505.889488 36.476406 
L 487.889488 36.476406 
z
" style="fill: #e1812c; stroke: #3f3f3f; stroke-linejoin: miter"/>
    </g>
    <g id="text_14">
     <text style="font-size: 9px; font-family: 'DejaVu Sans'; text-anchor: start" x="513.089488" y="42.776406" transform="rotate(-0 513.089488 42.776406)">R-loop-low-enriched</text>
    </g>
    <g id="patch_8">
     <path d="M 487.889488 55.986719 
L 505.889488 55.986719 
L 505.889488 49.686719 
L 487.889488 49.686719 
z
" style="fill: #3274a1; stroke: #3f3f3f; stroke-linejoin: miter"/>
    </g>
    <g id="text_15">
     <text style="font-size: 9px; font-family: 'DejaVu Sans'; text-anchor: start" x="513.089488" y="55.986719" transform="rotate(-0 513.089488 55.986719)">R-loop-high-enriched</text>
    </g>
   </g>
  </g>
 </g>
 <defs>
  <clipPath id="p806f7eb439">
   <rect x="35.844688" y="27.837812" width="435.24" height="266.112"/>
  </clipPath>
 </defs>
</svg>
